<svg width="71" height="80" viewBox="0 0 71 80" fill="none" xmlns="http://www.w3.org/2000/svg">
<path d="M62.765 69.0714H70.4775V79.5H57.5058L45.1073 63.97L44.7494 63.5216L44.3541 63.9375L29.5641 79.5H18.0036V69.0714H24.8739H25.0885L25.2363 68.9159L37.8809 55.6111L38.1811 55.2952L37.9092 54.9547L27.1176 41.4374L26.9566 41.2357L26.699 41.2501C26.0197 41.2881 25.327 41.3072 24.6202 41.3072H14.6015H14.1015V41.8072V66.2996H0.5V55.871H3.17295H3.67295V55.371V11.4286V10.9286H3.17295H0.5V0.5H3.17295H10.2857H24.6202C31.818 0.5 37.5948 2.46083 41.5649 5.94368C45.5274 9.41984 47.7413 14.4563 47.7411 20.7219C47.7411 28.5977 44.3658 34.5771 38.4593 38.0096L37.9581 38.3009L38.3197 38.7539L45.0752 47.2156L45.4331 47.6639L45.8283 47.2481L58.89 33.5046H70.4771V43.9331H63.5802H63.3656L63.2178 44.0887L52.3016 55.5752L52.0014 55.891L52.2733 56.2316L62.3742 68.8834L62.5243 69.0714H62.765ZM14.6015 10.9286H14.1015V11.4286V30.3394V30.8394H14.6015H24.6202C25.8821 30.8394 27.0498 30.7417 28.3795 30.6111L28.3938 30.6097L28.408 30.6075C32.7764 29.9235 35.0434 28.0285 36.1899 25.9555C37.313 23.9247 37.313 21.8016 37.313 20.7379V20.7223V20.7041C37.313 19.5468 37.3131 17.0831 35.6891 14.9137C34.0375 12.7073 30.8092 10.9286 24.6202 10.9286H14.6015Z" stroke="#656565"/>
</svg>
