<svg width="170" height="60" viewBox="0 0 170 60" fill="none" xmlns="http://www.w3.org/2000/svg">
<g clip-path="url(#clip0_338_83)">
<path d="M65.7002 5.7002H68.5502L76.9502 18.6002V5.7002H79.0502V21.3002H76.2002L67.8002 8.2502V21.3002H65.7002V5.7002Z" fill="white"/>
<path d="M85.5 21.4501C85.05 21.4501 84.45 21.1501 84 21.0001C83.4 20.7001 83.1 20.4001 82.8 19.8001C82.5 19.2001 82.5 18.6001 82.5 17.7001V13.6501C82.5 12.9001 82.65 12.3001 82.8 11.7001C82.95 11.1001 83.25 10.8001 83.55 10.5001C83.85 10.2001 84.15 10.0501 84.6 9.9001C85.05 9.7501 85.65 9.6001 86.1 9.6001C86.7 9.6001 87.3 9.6001 87.9 9.6001C88.8 9.6001 89.4 9.6001 89.85 9.6001C90.3 9.6001 90.75 9.7501 91.2 9.9001C91.5 9.9001 91.95 10.2001 92.25 10.5001C92.55 10.8001 92.7 11.2501 93 11.7001C93.15 12.3001 93.3 12.9001 93.3 13.6501V17.7001C93.3 19.0501 93 20.1001 92.4 20.7001C92.1 21.0001 91.8 21.1501 91.35 21.3001C90.9 21.4501 90.3 21.6001 89.85 21.6001C89.25 21.6001 88.65 21.6001 88.05 21.6001C86.85 21.6001 86.1 21.6001 85.5 21.4501ZM89.25 20.1001C89.55 20.1001 89.85 19.9501 90.15 19.8001C90.45 19.6501 90.6 19.5001 90.75 19.2001C90.9 18.9001 90.9 18.4501 90.9 18.0001V13.3501C90.9 12.6001 90.75 12.1501 90.6 11.8501C90.45 11.5501 90.15 11.2501 89.7 11.2501C89.25 11.1001 88.65 11.1001 87.75 11.1001C86.85 11.1001 86.25 11.1001 85.8 11.2501C85.35 11.4001 85.05 11.5501 84.9 11.8501C84.75 12.1501 84.6 12.7501 84.6 13.3501V18.0001C84.6 18.6001 84.6 18.9001 84.75 19.2001C84.9 19.5001 85.05 19.6501 85.35 19.8001C85.65 19.9501 85.95 20.1001 86.25 20.1001C86.55 20.1001 87 20.1001 87.75 20.1001C88.5 20.1001 88.95 20.1001 89.25 20.1001Z" fill="white"/>
<path d="M99.1502 21.2999C98.5502 21.1499 98.2502 20.6999 97.9502 20.2499C97.6502 19.7999 97.5002 18.8999 97.5002 17.9999V11.0999H94.9502V9.7499H97.5002V6.1499H99.7502V9.7499H103.95V11.0999H99.7502V17.9999C99.7502 18.5999 99.7502 19.0499 99.9002 19.3499C100.05 19.6499 100.35 19.7999 100.65 19.9499C100.95 20.0999 101.55 20.0999 102.15 20.0999C102.3 20.0999 102.9 20.0999 103.95 19.9499V21.2999C103.2 21.4499 102.3 21.4499 101.55 21.4499C100.35 21.5999 99.6002 21.4499 99.1502 21.2999Z" fill="white"/>
<path d="M108.75 21.4501C108.3 21.4501 107.7 21.1501 107.25 21.0001C106.65 20.7001 106.35 20.4001 106.05 19.8001C105.75 19.2001 105.75 18.6001 105.75 17.7001V13.6501C105.75 12.9001 105.9 12.3001 106.05 11.7001C106.2 11.1001 106.5 10.8001 106.8 10.5001C107.1 10.2001 107.4 10.0501 107.85 9.9001C108.3 9.7501 108.9 9.6001 109.35 9.6001C109.95 9.6001 110.55 9.6001 111.15 9.6001C112.05 9.6001 112.65 9.6001 113.1 9.6001C113.55 9.6001 114 9.7501 114.45 9.9001C114.9 9.9001 115.2 10.2001 115.5 10.5001C115.8 10.8001 115.95 11.2501 116.25 11.7001C116.4 12.3001 116.55 12.9001 116.55 13.6501V17.7001C116.55 19.0501 116.25 20.1001 115.65 20.7001C115.35 21.0001 115.05 21.1501 114.6 21.3001C114.15 21.4501 113.55 21.6001 113.1 21.6001C112.5 21.6001 111.9 21.6001 111.3 21.6001C110.1 21.6001 109.35 21.6001 108.75 21.4501ZM112.5 20.1001C112.8 20.1001 113.1 19.9501 113.4 19.8001C113.7 19.6501 113.85 19.5001 114 19.2001C114.15 18.9001 114.15 18.4501 114.15 18.0001V13.3501C114.15 12.6001 114 12.1501 113.85 11.8501C113.7 11.5501 113.4 11.2501 112.95 11.2501C112.5 11.1001 111.9 11.1001 111 11.1001C110.1 11.1001 109.5 11.1001 109.05 11.2501C108.6 11.4001 108.3 11.5501 108.15 11.8501C108 12.0001 108 12.6001 108 13.3501V18.0001C108 18.6001 108 18.9001 108.15 19.2001C108.3 19.5001 108.45 19.6501 108.75 19.8001C109.05 19.9501 109.35 20.1001 109.65 20.1001C109.95 20.1001 110.4 20.1001 111.15 20.1001C111.75 20.1001 112.2 20.1001 112.5 20.1001Z" fill="white"/>
<path d="M119.85 9.7501H121.95V11.7001C121.95 11.4001 122.1 10.9501 122.4 10.6501C122.7 10.3501 123.15 10.0501 123.6 9.9001C124.05 9.7501 124.65 9.6001 125.1 9.6001H126.15V11.4001H124.95C123.9 11.4001 123.15 11.5501 122.7 11.8501C122.25 12.1501 121.95 12.6001 121.95 13.3501V21.6001H119.85V9.7501Z" fill="white"/>
<path d="M128.25 5.5498H130.35V7.7998H128.25V5.5498ZM128.25 9.7498H130.35V21.2998H128.25V9.7498Z" fill="white"/>
<path d="M136.8 21.4501C136.35 21.4501 135.75 21.1501 135.3 21.0001C134.7 20.7001 134.4 20.4001 134.1 19.8001C133.8 19.2001 133.8 18.6001 133.8 17.7001V13.6501C133.8 12.9001 133.95 12.3001 134.1 11.7001C134.25 11.1001 134.55 10.8001 134.85 10.5001C135.15 10.2001 135.45 10.0501 135.9 9.9001C136.35 9.7501 136.95 9.6001 137.4 9.6001C138 9.6001 138.6 9.6001 139.2 9.6001C140.1 9.6001 140.7 9.6001 141.15 9.6001C141.6 9.6001 142.05 9.7501 142.5 9.9001C142.95 10.0501 143.4 10.2001 143.7 10.5001C144 10.8001 144.15 11.2501 144.45 11.7001C144.6 12.3001 144.75 12.9001 144.75 13.6501V17.7001C144.75 19.0501 144.45 20.1001 143.85 20.7001C143.55 21.0001 143.25 21.1501 142.8 21.3001C142.35 21.4501 141.75 21.6001 141.3 21.6001C140.7 21.6001 140.1 21.6001 139.5 21.6001C138 21.6001 137.25 21.6001 136.8 21.4501ZM140.55 20.1001C140.85 20.1001 141.15 19.9501 141.45 19.8001C141.75 19.6501 141.9 19.5001 142.05 19.2001C142.2 18.9001 142.2 18.4501 142.2 18.0001V13.3501C142.2 12.6001 142.05 12.1501 141.9 11.8501C141.75 11.5501 141.45 11.2501 141 11.2501C140.55 11.1001 139.95 11.1001 139.05 11.1001C138.15 11.1001 137.55 11.1001 137.1 11.2501C136.65 11.4001 136.35 11.5501 136.2 11.8501C136.05 12.1501 135.9 12.7501 135.9 13.3501V18.0001C135.9 18.6001 135.9 18.9001 136.05 19.2001C136.2 19.5001 136.35 19.6501 136.65 19.8001C136.95 19.9501 137.25 20.1001 137.55 20.1001C137.85 20.1001 138.3 20.1001 139.05 20.1001C139.8 20.1001 140.25 20.1001 140.55 20.1001Z" fill="white"/>
<path d="M148.2 20.85C147.6 20.25 147.3 19.5 147.3 18.3V9.75H149.4V18.15C149.4 18.45 149.4 18.75 149.55 18.9C149.55 19.05 149.7 19.2 149.85 19.5C150.15 19.95 150.9 20.1 151.95 20.1C153.15 20.1 153.9 19.95 154.5 19.8C154.95 19.65 155.25 19.2 155.25 18.6V9.75H157.35V21.3H155.25V19.95C155.1 21 153.75 21.6 151.5 21.6C149.85 21.6 148.8 21.3 148.2 20.85Z" fill="white"/>
<path d="M160.5 21.3002V19.6502C162.3 19.9502 163.65 20.1002 164.55 20.1002C165.6 20.1002 166.35 19.9502 166.8 19.8002C167.25 19.6502 167.4 19.2002 167.4 18.7502V17.5502C167.4 17.1002 167.25 16.6502 166.95 16.5002C166.65 16.3502 166.05 16.2002 165.3 16.2002H163.95C162.75 16.2002 161.85 15.9002 161.25 15.4502C160.65 15.0002 160.35 14.2502 160.35 13.3502V12.1502C160.35 10.3502 162.15 9.4502 165.6 9.4502C165.9 9.4502 167.1 9.4502 169.2 9.6002V11.1002C167.7 10.9502 166.5 10.8002 165.6 10.8002C164.4 10.8002 163.65 10.9502 163.2 11.1002C162.75 11.2502 162.6 11.7002 162.6 12.3002V13.3502C162.6 14.1002 163.35 14.5502 164.7 14.5502H166.05C168.45 14.5502 169.65 15.4502 169.65 17.2502V18.3002C169.65 19.5002 169.2 20.4002 168.45 20.8502C167.55 21.3002 166.35 21.6002 164.7 21.6002C163.2 21.6002 161.85 21.4502 160.5 21.3002Z" fill="white"/>
<path d="M65.7 36.6H63V35.25H65.7V33.45C65.7 32.1 66 31.2 66.6 30.75C67.2 30.3 68.1 30 69.6 30C70.5 30 71.25 30 72 30.15V31.5C71.4 31.35 70.8 31.35 70.35 31.35C69.6 31.35 69.15 31.35 68.85 31.5C68.55 31.65 68.25 31.8 68.1 32.1C67.95 32.4 67.95 32.85 67.95 33.3V35.25H72V36.6H67.95V46.8H65.85V36.6H65.7ZM73.5 30H75.6V32.4H73.5V30ZM73.5 35.25H75.6V46.8H73.5V35.25Z" fill="white"/>
<path d="M79.5 35.2502H81.6V36.6002C81.75 35.5502 83.1 34.9502 85.35 34.9502C86.85 34.9502 87.9 35.2502 88.5 35.7002C89.1 36.3002 89.4 37.0502 89.4 38.2502V46.8002H87.3V38.4002C87.3 38.1002 87.3 37.8002 87.3 37.6502C87.3 37.5002 87.15 37.2002 87 37.0502C86.7 36.6002 85.95 36.4502 84.9 36.4502C84 36.4502 83.4 36.4502 82.95 36.6002C82.5 36.7502 82.2 36.9002 82.05 37.2002C81.9 37.5002 81.75 37.8002 81.75 38.4002V46.8002H79.5V35.2502Z" fill="white"/>
<path d="M94.2004 46.8001C93.6004 46.6501 93.1504 46.2001 92.8504 45.7501C92.5504 45.1501 92.4004 44.4001 92.4004 43.5001C92.4004 42.6001 92.5504 42.0001 92.7004 41.4001C92.8504 40.8001 93.3004 40.5001 93.9004 40.3501C94.5004 40.2001 95.4004 40.0501 96.4504 40.0501H99.9004V38.2501C99.9004 37.8001 99.7504 37.5001 99.6004 37.2001C99.4504 36.9001 99.1504 36.7501 98.7004 36.7501C98.2504 36.6001 97.8004 36.6001 97.0504 36.6001C95.8504 36.6001 94.5004 36.7501 93.0004 36.9001V35.2501C94.6504 35.1001 96.0004 35.1001 97.3504 35.1001C98.7004 35.1001 99.7504 35.2501 100.35 35.4001C100.95 35.5501 101.4 36.0001 101.7 36.4501C102 36.9001 102 37.6501 102 38.7001V46.9501H99.9004V45.9001C99.7504 46.8001 98.5504 47.2501 96.4504 47.2501C95.7004 47.1001 94.8004 46.9501 94.2004 46.8001ZM97.2004 45.6001C97.9504 45.6001 98.7004 45.6001 99.1504 45.4501C99.9004 45.3001 100.2 45.0001 100.2 44.4001V41.2501H96.9004C96.1504 41.2501 95.7004 41.2501 95.4004 41.4001C95.1004 41.5501 94.9504 41.7001 94.8004 42.0001C94.6504 42.3001 94.6504 42.7501 94.6504 43.3501C94.6504 43.9501 94.6504 44.4001 94.8004 44.7001C94.9504 45.0001 95.1004 45.3001 95.4004 45.3001C95.7004 45.4501 96.1504 45.4501 96.7504 45.4501H97.2004V45.6001Z" fill="white"/>
<path d="M106.05 35.2502H108.15V36.6002C108.3 35.5502 109.65 34.9502 111.9 34.9502C113.4 34.9502 114.45 35.2502 115.05 35.7002C115.65 36.3002 115.95 37.0502 115.95 38.2502V46.8002H114V38.4002C114 38.1002 114 37.8002 114 37.6502C114 37.5002 113.85 37.2002 113.7 37.0502C113.4 36.6002 112.65 36.4502 111.6 36.4502C110.7 36.4502 110.1 36.4502 109.65 36.6002C109.2 36.7502 108.9 36.9002 108.75 37.2002C108.6 37.5002 108.45 37.8002 108.45 38.4002V46.8002H106.35V35.2502H106.05Z" fill="white"/>
<path d="M122.85 47.1002C122.55 47.1002 122.1 46.9502 121.65 46.8002C121.2 46.6502 120.75 46.5002 120.45 46.2002C120.15 45.9002 120 45.6002 119.7 45.0002C119.55 44.5502 119.4 43.9502 119.4 43.2002V39.0002C119.4 37.6502 119.7 36.7502 120.15 36.1502C120.45 35.8502 120.75 35.5502 121.05 35.4002C121.35 35.2502 121.65 35.1002 122.1 35.1002C122.55 35.1002 123 34.9502 123.3 34.9502C123.6 34.9502 124.2 34.9502 124.8 34.9502C125.85 34.9502 127.05 35.1002 128.1 35.2502V36.9002C126.75 36.6002 125.7 36.4502 124.5 36.4502C123.6 36.4502 123 36.4502 122.7 36.6002C122.4 36.7502 122.1 36.9002 121.95 37.2002C121.8 37.5002 121.65 37.9502 121.65 38.7002V43.5002C121.65 44.1002 121.8 44.5502 121.95 44.8502C122.1 45.1502 122.4 45.3002 122.85 45.4502C123.3 45.6002 123.9 45.6002 124.8 45.6002C126 45.6002 127.2 45.4502 128.25 45.1502V46.8002C127.2 46.9502 125.85 47.1002 124.5 47.1002C123.75 47.1002 123.15 47.1002 122.85 47.1002Z" fill="white"/>
<path d="M130.5 43.5001V39.0001C130.5 37.6501 130.95 36.6001 131.7 36.0001C132.45 35.4001 133.8 35.1001 135.6 35.1001C137.25 35.1001 138.6 35.4001 139.35 36.0001C140.1 36.6001 140.55 37.6501 140.55 39.0001V41.5501H132.75V43.3501C132.75 44.1001 133.05 44.7001 133.65 45.1501C134.25 45.4501 135 45.7501 136.2 45.7501C137.25 45.7501 138.6 45.6001 140.1 45.1501V46.8001C138.6 47.1001 137.25 47.2501 135.9 47.2501C132.3 47.1001 130.5 45.9001 130.5 43.5001ZM138.45 40.0501V38.2501C138.45 37.5001 138.3 37.0501 137.85 36.7501C137.4 36.4501 136.65 36.3001 135.75 36.3001C134.7 36.3001 134.1 36.4501 133.65 36.7501C133.2 37.0501 133.05 37.5001 133.05 38.2501V40.0501H138.45Z" fill="white"/>
<path d="M15.9 36.8999C16.05 37.0499 16.2 37.0499 16.35 37.1999H16.5L16.95 37.4999L17.55 36.4499L17.1 36.1499L16.95 35.9999C16.8 35.8499 16.65 35.8499 16.65 35.8499C16.2 35.5499 15.9 35.2499 15.75 34.9499C15.6 34.4999 15.45 34.0499 15.45 33.1499H14.25C14.25 35.2499 14.7 36.1499 15.9 36.8999Z" fill="#FF2020"/>
<path d="M36.8988 34.8001C37.4988 34.5001 37.6488 34.0501 37.6488 33.6001V12.1501C37.6488 11.7001 37.3488 11.4001 36.8988 11.1001L28.6488 6.7501C27.8988 6.3001 26.6988 6.3001 25.7988 6.7501L17.5488 11.1001C17.0988 11.4001 16.7988 11.7001 16.7988 12.1501V33.6001C16.7988 33.6001 16.7988 33.6001 16.7988 33.7501C16.7988 34.2001 17.0988 34.6501 17.5488 34.9501L25.7988 39.3001C26.5488 39.7501 27.7488 39.7501 28.6488 39.3001L36.8988 34.8001ZM36.4488 21.3001L29.0988 17.4001L36.4488 13.5001V21.3001ZM36.2988 22.8001L28.0488 27.0001H27.8988V18.1501H28.0488L36.2988 22.8001ZM18.2988 12.1501L26.5488 7.8001C26.9988 7.6501 27.7488 7.6501 28.1988 7.8001L36.4488 12.1501L28.0488 16.5001C27.5988 16.6501 26.8488 16.6501 26.3988 16.5001L18.2988 12.1501ZM26.5488 18.3001V27.1501H26.3988L18.1488 22.8001L26.3988 18.4501C26.5488 18.4501 26.5488 18.4501 26.5488 18.3001ZM18.1488 13.6501L25.4988 17.5501L18.1488 21.4501V13.6501ZM27.2988 38.2501C26.6988 38.2501 26.2488 37.9501 25.9488 37.8001L18.2988 33.7501V24.3001L25.9488 28.3501C26.6988 28.8001 27.8988 28.8001 28.7988 28.3501L36.4488 24.3001V33.7501L28.6488 37.8001C28.1988 37.9501 27.7488 38.2501 27.2988 38.2501Z" fill="#FF2020"/>
<path d="M38.5494 8.9999C38.3994 8.8499 38.2494 8.8499 38.0994 8.6999H37.9494L37.4994 8.3999L36.8994 9.4499L37.3494 9.7499L37.4994 9.8999C37.6494 10.0499 37.7994 10.0499 37.7994 10.0499C38.2494 10.3499 38.5494 10.6499 38.6994 10.9499C38.8494 11.2499 38.9994 11.8499 38.9994 12.5999H40.3494C40.3494 10.6499 39.8994 9.7499 38.5494 8.9999Z" fill="#FF2020"/>
<path d="M45.2996 35.4C45.7496 25.95 46.6496 16.5 48.1496 7.2C48.1496 7.05 48.1496 6.9 48.1496 6.75C47.9996 1.2 30.4496 0 27.2996 0C20.6996 0 6.29961 1.8 6.29961 6.9C6.29961 7.05 6.29961 7.35 6.29961 7.5C7.79961 16.5 8.69961 25.95 9.14961 35.4C3.14961 37.5 -0.150391 40.65 -0.150391 44.25C-0.150391 45.9 0.449609 47.4 1.64961 48.75L2.69961 47.7C1.94961 46.65 1.49961 45.6 1.49961 44.25C1.49961 41.25 4.64961 38.55 10.1996 36.6L10.6496 36.45V35.85C10.3496 26.25 9.44961 16.65 7.79961 7.35C7.79961 7.35 7.79961 7.05 7.79961 6.9C7.79961 4.05 18.4496 1.5 27.2996 1.5C33.1496 1.5 46.6496 3.45 46.7996 6.9V7.05C45.2996 16.5 44.2496 26.25 43.9496 36V36.6L44.3996 36.75C50.0996 38.7 53.0996 41.4 53.0996 44.4C53.0996 50.7 40.0496 54.6 27.2996 54.6V56.1C40.7996 56.1 54.5996 52.05 54.5996 44.4C54.5996 40.8 51.2996 37.65 45.2996 35.4Z" fill="#FF2020"/>
<path d="M17.2496 41.25C13.3496 41.25 10.1996 43.8 9.14961 47.4C8.69961 46.95 7.94961 46.8 7.34961 46.8C5.69961 46.8 4.34961 48.15 4.34961 49.8C4.34961 51.15 5.24961 52.35 6.59961 52.65V60.15H8.09961V52.65C8.54961 52.5 8.84961 52.35 9.14961 52.05C10.1996 55.65 13.3496 58.2 17.2496 58.2C21.8996 58.2 25.6496 54.45 25.6496 49.8C25.6496 45.15 21.8996 41.25 17.2496 41.25ZM7.34961 51.15C6.59961 51.15 5.84961 50.55 5.84961 49.65C5.84961 48.75 6.44961 48.15 7.34961 48.15C8.24961 48.15 8.84961 48.75 8.84961 49.65C8.84961 50.55 8.09961 51.15 7.34961 51.15ZM17.2496 56.55C13.3496 56.55 10.3496 53.4 10.3496 49.65C10.3496 45.9 13.4996 42.75 17.2496 42.75C21.1496 42.75 24.1496 45.9 24.1496 49.65C24.1496 53.4 21.1496 56.55 17.2496 56.55Z" fill="#FF2020"/>
<path d="M17.25 44.5498V46.0498C19.2 46.0498 20.85 47.6998 20.85 49.6498H22.35C22.35 46.7998 20.1 44.5498 17.25 44.5498Z" fill="#FF2020"/>
<path d="M31.05 48.9001C31.2 49.0501 34.05 50.8501 37.65 50.8501C39.3 50.8501 41.1 50.4001 42.75 49.2001C45.9 46.9501 45.3 42.3001 45.3 42.1501L45.15 41.1001L30 48.1501L31.05 48.9001ZM43.95 43.3501C43.95 44.7001 43.65 46.8001 42 48.0001C38.85 50.2501 35.1 49.0501 33.3 48.3001L43.95 43.3501Z" fill="#FF2020"/>
</g>
<defs>
<clipPath id="clip0_338_83">
<rect width="169.5" height="60" fill="white"/>
</clipPath>
</defs>
</svg>
