<svg width="400" height="400" viewBox="0 0 400 400" fill="none" xmlns="http://www.w3.org/2000/svg">
<g clip-path="url(#clip0_2806_51)">
<path d="M93.7778 57.3335L80.6667 39.3335C30.6667 76.6668 0.666667 135.334 0 197.778H22.2222C22.8889 142.445 49.3333 90.4446 93.7778 57.3335Z" fill="#A80808"/>
<path d="M84.4443 36.8889L97.5555 54.8889C126.889 34 161.778 22.6667 197.778 22.2222V0C157.111 0.444444 117.555 13.3333 84.4443 36.8889Z" fill="#750000"/>
<path d="M202.223 0V22.2222C299.334 23.3333 377.778 102.444 377.778 200C377.778 297.333 299.334 376.444 202.223 377.778V400C311.556 398.889 400 309.778 400 200C400 90.2222 311.556 1.11111 202.223 0Z" fill="#FF2020"/>
<path d="M197.778 377.778C101.333 376.667 23.5556 298.667 22.2222 202.222H0C1.11111 310.889 89.1111 398.667 197.778 400V377.778Z" fill="#D61515"/>
<path d="M96.4448 60.8887C53.3337 93.1109 27.3337 144 26.667 197.778H196L96.4448 60.8887Z" fill="url(#paint0_radial_2806_51)"/>
<path d="M197.778 192.667V26.6665C162.444 27.1109 128.889 37.9998 100 58.4443L197.778 192.667Z" fill="url(#paint1_radial_2806_51)"/>
<path d="M197.778 202.222H26.667C27.7781 296 104 372 197.778 373.333V202.222Z" fill="url(#paint2_radial_2806_51)"/>
<path d="M202.223 26.6665V373.333C247.778 372.666 290.445 354.889 322.667 322.666C355.334 289.778 373.334 246.222 373.334 200C373.334 105.111 296.667 27.7776 202.223 26.6665Z" fill="url(#paint3_radial_2806_51)"/>
<path d="M307.432 205.24C306.328 205.24 304.672 205.152 302.464 204.976V202.072C304.448 202.44 305.944 202.624 306.952 202.624C307.832 202.624 308.472 202.528 308.872 202.336C309.272 202.128 309.472 201.808 309.472 201.376V199.048C309.472 198.616 309.328 198.312 309.04 198.136C308.752 197.944 308.28 197.848 307.624 197.848H302.824V189.424H312.664V192.112H306.328V195.28H308.776C309.704 195.28 310.608 195.456 311.488 195.808C311.968 196.016 312.352 196.336 312.64 196.768C312.928 197.2 313.072 197.704 313.072 198.28V201.544C313.072 202.168 312.952 202.728 312.712 203.224C312.472 203.704 312.168 204.072 311.8 204.328C311.48 204.568 311.048 204.76 310.504 204.904C309.976 205.048 309.464 205.144 308.968 205.192C308.392 205.224 307.88 205.24 307.432 205.24ZM321.858 205.24C321.154 205.24 320.578 205.216 320.13 205.168C319.682 205.12 319.194 205.024 318.666 204.88C318.122 204.72 317.682 204.496 317.346 204.208C317.01 203.904 316.73 203.472 316.506 202.912C316.266 202.368 316.146 201.712 316.146 200.944V193.48C316.146 192.744 316.258 192.096 316.482 191.536C316.706 190.976 316.994 190.536 317.346 190.216C317.65 189.944 318.066 189.728 318.594 189.568C319.122 189.392 319.65 189.28 320.178 189.232C320.786 189.2 321.346 189.184 321.858 189.184C322.578 189.184 323.154 189.208 323.586 189.256C324.018 189.288 324.498 189.384 325.026 189.544C325.602 189.72 326.058 189.952 326.394 190.24C326.73 190.528 327.018 190.944 327.258 191.488C327.498 192.032 327.618 192.696 327.618 193.48V200.944C327.618 201.68 327.498 202.328 327.258 202.888C327.034 203.448 326.746 203.88 326.394 204.184C326.074 204.456 325.634 204.68 325.074 204.856C324.53 205.032 324.01 205.136 323.514 205.168C323.066 205.216 322.514 205.24 321.858 205.24ZM321.906 202.984C322.578 202.984 323.058 202.944 323.346 202.864C323.634 202.768 323.826 202.6 323.922 202.36C324.018 202.12 324.066 201.728 324.066 201.184V193.24C324.066 192.696 324.018 192.304 323.922 192.064C323.826 191.824 323.634 191.664 323.346 191.584C323.058 191.488 322.578 191.44 321.906 191.44C321.218 191.44 320.722 191.488 320.418 191.584C320.13 191.664 319.938 191.824 319.842 192.064C319.746 192.304 319.698 192.696 319.698 193.24V201.184C319.698 201.728 319.746 202.12 319.842 202.36C319.938 202.6 320.13 202.768 320.418 202.864C320.722 202.944 321.218 202.984 321.906 202.984ZM342.02 189.184H344.108L336.332 205.24H334.244L342.02 189.184ZM333.74 198.304C332.78 198.304 332.012 198.232 331.436 198.088C330.876 197.928 330.452 197.656 330.164 197.272C329.876 196.872 329.732 196.296 329.732 195.544V192.688C329.732 192.176 329.812 191.72 329.972 191.32C330.132 190.92 330.34 190.608 330.596 190.384C330.82 190.192 331.116 190.04 331.484 189.928C331.852 189.8 332.22 189.712 332.588 189.664C333.004 189.632 333.388 189.616 333.74 189.616C334.236 189.616 334.636 189.632 334.94 189.664C335.26 189.696 335.596 189.768 335.948 189.88C336.332 190.008 336.644 190.176 336.884 190.384C337.124 190.592 337.324 190.888 337.484 191.272C337.644 191.656 337.724 192.128 337.724 192.688V195.544C337.724 196.296 337.58 196.872 337.292 197.272C337.02 197.656 336.596 197.928 336.02 198.088C335.46 198.232 334.7 198.304 333.74 198.304ZM333.74 196.48C334.62 196.48 335.06 196.248 335.06 195.784V192.256C335.06 191.712 334.62 191.44 333.74 191.44C332.844 191.44 332.396 191.712 332.396 192.256V195.784C332.396 196.056 332.5 196.24 332.708 196.336C332.916 196.432 333.26 196.48 333.74 196.48ZM344.492 205.24C343.532 205.24 342.764 205.16 342.188 205C341.628 204.856 341.204 204.592 340.916 204.208C340.628 203.808 340.484 203.232 340.484 202.48V199.624C340.484 199.112 340.564 198.656 340.724 198.256C340.884 197.856 341.092 197.544 341.348 197.32C341.572 197.128 341.868 196.976 342.236 196.864C342.604 196.736 342.972 196.648 343.34 196.6C343.756 196.568 344.14 196.552 344.492 196.552C344.988 196.552 345.388 196.568 345.692 196.6C346.012 196.632 346.348 196.704 346.7 196.816C347.084 196.944 347.396 197.112 347.636 197.32C347.876 197.528 348.076 197.824 348.236 198.208C348.396 198.592 348.476 199.064 348.476 199.624V202.48C348.476 203.232 348.332 203.808 348.044 204.208C347.772 204.592 347.348 204.856 346.772 205C346.212 205.16 345.452 205.24 344.492 205.24ZM344.492 203.416C345.372 203.416 345.812 203.184 345.812 202.72V199.192C345.812 198.648 345.372 198.376 344.492 198.376C343.596 198.376 343.148 198.648 343.148 199.192V202.72C343.148 203.184 343.596 203.416 344.492 203.416Z" fill="white"/>
<path d="M87.392 292.448C87.392 291.584 87.632 290.832 88.112 290.192C88.592 289.552 89.216 289.064 89.984 288.728C90.592 288.456 91.304 288.184 92.12 287.912C92.936 287.64 93.568 287.352 94.016 287.048C94.464 286.744 94.688 286.384 94.688 285.968V283.976C94.688 283.48 94.488 283.152 94.088 282.992C93.656 282.816 92.984 282.728 92.072 282.728C90.968 282.728 89.512 282.928 87.704 283.328V280.688C89.304 280.352 90.976 280.184 92.72 280.184C94.608 280.184 96.008 280.472 96.92 281.048C97.848 281.624 98.312 282.584 98.312 283.928V286.088C98.312 286.904 98.064 287.616 97.568 288.224C97.088 288.816 96.464 289.264 95.696 289.568C94.976 289.872 94.24 290.144 93.488 290.384C92.672 290.672 92.024 290.992 91.544 291.344C91.08 291.696 90.848 292.112 90.848 292.592V293.384H98.336V296H87.392V292.448ZM106.354 296.24C105.25 296.24 103.594 296.152 101.386 295.976V293.072C103.37 293.44 104.866 293.624 105.874 293.624C106.754 293.624 107.394 293.528 107.794 293.336C108.194 293.128 108.394 292.808 108.394 292.376V290.048C108.394 289.616 108.25 289.312 107.962 289.136C107.674 288.944 107.202 288.848 106.546 288.848H101.746V280.424H111.586V283.112H105.25V286.28H107.698C108.626 286.28 109.53 286.456 110.41 286.808C110.89 287.016 111.274 287.336 111.562 287.768C111.85 288.2 111.994 288.704 111.994 289.28V292.544C111.994 293.168 111.874 293.728 111.634 294.224C111.394 294.704 111.09 295.072 110.722 295.328C110.402 295.568 109.97 295.76 109.426 295.904C108.898 296.048 108.386 296.144 107.89 296.192C107.314 296.224 106.802 296.24 106.354 296.24ZM127.02 280.184H129.108L121.332 296.24H119.244L127.02 280.184ZM118.74 289.304C117.78 289.304 117.012 289.232 116.436 289.088C115.876 288.928 115.452 288.656 115.164 288.272C114.876 287.872 114.732 287.296 114.732 286.544V283.688C114.732 283.176 114.812 282.72 114.972 282.32C115.132 281.92 115.34 281.608 115.596 281.384C115.82 281.192 116.116 281.04 116.484 280.928C116.852 280.8 117.22 280.712 117.588 280.664C118.004 280.632 118.388 280.616 118.74 280.616C119.236 280.616 119.636 280.632 119.94 280.664C120.26 280.696 120.596 280.768 120.948 280.88C121.332 281.008 121.644 281.176 121.884 281.384C122.124 281.592 122.324 281.888 122.484 282.272C122.644 282.656 122.724 283.128 122.724 283.688V286.544C122.724 287.296 122.58 287.872 122.292 288.272C122.02 288.656 121.596 288.928 121.02 289.088C120.46 289.232 119.7 289.304 118.74 289.304ZM118.74 287.48C119.62 287.48 120.06 287.248 120.06 286.784V283.256C120.06 282.712 119.62 282.44 118.74 282.44C117.844 282.44 117.396 282.712 117.396 283.256V286.784C117.396 287.056 117.5 287.24 117.708 287.336C117.916 287.432 118.26 287.48 118.74 287.48ZM129.492 296.24C128.532 296.24 127.764 296.16 127.188 296C126.628 295.856 126.204 295.592 125.916 295.208C125.628 294.808 125.484 294.232 125.484 293.48V290.624C125.484 290.112 125.564 289.656 125.724 289.256C125.884 288.856 126.092 288.544 126.348 288.32C126.572 288.128 126.868 287.976 127.236 287.864C127.604 287.736 127.972 287.648 128.34 287.6C128.756 287.568 129.14 287.552 129.492 287.552C129.988 287.552 130.388 287.568 130.692 287.6C131.012 287.632 131.348 287.704 131.7 287.816C132.084 287.944 132.396 288.112 132.636 288.32C132.876 288.528 133.076 288.824 133.236 289.208C133.396 289.592 133.476 290.064 133.476 290.624V293.48C133.476 294.232 133.332 294.808 133.044 295.208C132.772 295.592 132.348 295.856 131.772 296C131.212 296.16 130.452 296.24 129.492 296.24ZM129.492 294.416C130.372 294.416 130.812 294.184 130.812 293.72V290.192C130.812 289.648 130.372 289.376 129.492 289.376C128.596 289.376 128.148 289.648 128.148 290.192V293.72C128.148 294.184 128.596 294.416 129.492 294.416Z" fill="white"/>
<path d="M65.288 135.096L61.04 137.448V134.496L65.96 131.424H68.792V147H65.288V135.096ZM79.3539 147.24C78.2499 147.24 76.5939 147.152 74.3859 146.976V144.072C76.3699 144.44 77.8659 144.624 78.8739 144.624C79.7539 144.624 80.3939 144.528 80.7939 144.336C81.1939 144.128 81.3939 143.808 81.3939 143.376V141.048C81.3939 140.616 81.2499 140.312 80.9619 140.136C80.6739 139.944 80.2019 139.848 79.5459 139.848H74.7459V131.424H84.5859V134.112H78.2499V137.28H80.6979C81.6259 137.28 82.5299 137.456 83.4099 137.808C83.8899 138.016 84.2739 138.336 84.5619 138.768C84.8499 139.2 84.9939 139.704 84.9939 140.28V143.544C84.9939 144.168 84.8739 144.728 84.6339 145.224C84.3939 145.704 84.0899 146.072 83.7219 146.328C83.4019 146.568 82.9699 146.76 82.4259 146.904C81.8979 147.048 81.3859 147.144 80.8899 147.192C80.3139 147.224 79.8019 147.24 79.3539 147.24ZM100.02 131.184H102.108L94.3318 147.24H92.2438L100.02 131.184ZM91.7398 140.304C90.7798 140.304 90.0118 140.232 89.4358 140.088C88.8758 139.928 88.4518 139.656 88.1638 139.272C87.8758 138.872 87.7318 138.296 87.7318 137.544V134.688C87.7318 134.176 87.8118 133.72 87.9718 133.32C88.1318 132.92 88.3398 132.608 88.5958 132.384C88.8198 132.192 89.1158 132.04 89.4838 131.928C89.8518 131.8 90.2198 131.712 90.5878 131.664C91.0038 131.632 91.3878 131.616 91.7398 131.616C92.2358 131.616 92.6358 131.632 92.9398 131.664C93.2598 131.696 93.5958 131.768 93.9478 131.88C94.3318 132.008 94.6438 132.176 94.8838 132.384C95.1238 132.592 95.3238 132.888 95.4838 133.272C95.6438 133.656 95.7238 134.128 95.7238 134.688V137.544C95.7238 138.296 95.5798 138.872 95.2918 139.272C95.0198 139.656 94.5958 139.928 94.0198 140.088C93.4598 140.232 92.6998 140.304 91.7398 140.304ZM91.7398 138.48C92.6198 138.48 93.0598 138.248 93.0598 137.784V134.256C93.0598 133.712 92.6198 133.44 91.7398 133.44C90.8438 133.44 90.3958 133.712 90.3958 134.256V137.784C90.3958 138.056 90.4998 138.24 90.7078 138.336C90.9158 138.432 91.2598 138.48 91.7398 138.48ZM102.492 147.24C101.532 147.24 100.764 147.16 100.188 147C99.6278 146.856 99.2038 146.592 98.9158 146.208C98.6278 145.808 98.4838 145.232 98.4838 144.48V141.624C98.4838 141.112 98.5638 140.656 98.7238 140.256C98.8838 139.856 99.0918 139.544 99.3478 139.32C99.5718 139.128 99.8678 138.976 100.236 138.864C100.604 138.736 100.972 138.648 101.34 138.6C101.756 138.568 102.14 138.552 102.492 138.552C102.988 138.552 103.388 138.568 103.692 138.6C104.012 138.632 104.348 138.704 104.7 138.816C105.084 138.944 105.396 139.112 105.636 139.32C105.876 139.528 106.076 139.824 106.236 140.208C106.396 140.592 106.476 141.064 106.476 141.624V144.48C106.476 145.232 106.332 145.808 106.044 146.208C105.772 146.592 105.348 146.856 104.772 147C104.212 147.16 103.452 147.24 102.492 147.24ZM102.492 145.416C103.372 145.416 103.812 145.184 103.812 144.72V141.192C103.812 140.648 103.372 140.376 102.492 140.376C101.596 140.376 101.148 140.648 101.148 141.192V144.72C101.148 145.184 101.596 145.416 102.492 145.416Z" fill="white"/>
<path d="M137.288 65.096L133.04 67.448V64.496L137.96 61.424H140.792V77H137.288V65.096ZM151.858 77.24C151.154 77.24 150.578 77.216 150.13 77.168C149.682 77.12 149.194 77.024 148.666 76.88C148.122 76.72 147.682 76.496 147.346 76.208C147.01 75.904 146.73 75.472 146.506 74.912C146.266 74.368 146.146 73.712 146.146 72.944V65.48C146.146 64.744 146.258 64.096 146.482 63.536C146.706 62.976 146.994 62.536 147.346 62.216C147.65 61.944 148.066 61.728 148.594 61.568C149.122 61.392 149.65 61.28 150.178 61.232C150.786 61.2 151.346 61.184 151.858 61.184C152.578 61.184 153.154 61.208 153.586 61.256C154.018 61.288 154.498 61.384 155.026 61.544C155.602 61.72 156.058 61.952 156.394 62.24C156.73 62.528 157.018 62.944 157.258 63.488C157.498 64.032 157.618 64.696 157.618 65.48V72.944C157.618 73.68 157.498 74.328 157.258 74.888C157.034 75.448 156.746 75.88 156.394 76.184C156.074 76.456 155.634 76.68 155.074 76.856C154.53 77.032 154.01 77.136 153.514 77.168C153.066 77.216 152.514 77.24 151.858 77.24ZM151.906 74.984C152.578 74.984 153.058 74.944 153.346 74.864C153.634 74.768 153.826 74.6 153.922 74.36C154.018 74.12 154.066 73.728 154.066 73.184V65.24C154.066 64.696 154.018 64.304 153.922 64.064C153.826 63.824 153.634 63.664 153.346 63.584C153.058 63.488 152.578 63.44 151.906 63.44C151.218 63.44 150.722 63.488 150.418 63.584C150.13 63.664 149.938 63.824 149.842 64.064C149.746 64.304 149.698 64.696 149.698 65.24V73.184C149.698 73.728 149.746 74.12 149.842 74.36C149.938 74.6 150.13 74.768 150.418 74.864C150.722 74.944 151.218 74.984 151.906 74.984ZM172.02 61.184H174.108L166.332 77.24H164.244L172.02 61.184ZM163.74 70.304C162.78 70.304 162.012 70.232 161.436 70.088C160.876 69.928 160.452 69.656 160.164 69.272C159.876 68.872 159.732 68.296 159.732 67.544V64.688C159.732 64.176 159.812 63.72 159.972 63.32C160.132 62.92 160.34 62.608 160.596 62.384C160.82 62.192 161.116 62.04 161.484 61.928C161.852 61.8 162.22 61.712 162.588 61.664C163.004 61.632 163.388 61.616 163.74 61.616C164.236 61.616 164.636 61.632 164.94 61.664C165.26 61.696 165.596 61.768 165.948 61.88C166.332 62.008 166.644 62.176 166.884 62.384C167.124 62.592 167.324 62.888 167.484 63.272C167.644 63.656 167.724 64.128 167.724 64.688V67.544C167.724 68.296 167.58 68.872 167.292 69.272C167.02 69.656 166.596 69.928 166.02 70.088C165.46 70.232 164.7 70.304 163.74 70.304ZM163.74 68.48C164.62 68.48 165.06 68.248 165.06 67.784V64.256C165.06 63.712 164.62 63.44 163.74 63.44C162.844 63.44 162.396 63.712 162.396 64.256V67.784C162.396 68.056 162.5 68.24 162.708 68.336C162.916 68.432 163.26 68.48 163.74 68.48ZM174.492 77.24C173.532 77.24 172.764 77.16 172.188 77C171.628 76.856 171.204 76.592 170.916 76.208C170.628 75.808 170.484 75.232 170.484 74.48V71.624C170.484 71.112 170.564 70.656 170.724 70.256C170.884 69.856 171.092 69.544 171.348 69.32C171.572 69.128 171.868 68.976 172.236 68.864C172.604 68.736 172.972 68.648 173.34 68.6C173.756 68.568 174.14 68.552 174.492 68.552C174.988 68.552 175.388 68.568 175.692 68.6C176.012 68.632 176.348 68.704 176.7 68.816C177.084 68.944 177.396 69.112 177.636 69.32C177.876 69.528 178.076 69.824 178.236 70.208C178.396 70.592 178.476 71.064 178.476 71.624V74.48C178.476 75.232 178.332 75.808 178.044 76.208C177.772 76.592 177.348 76.856 176.772 77C176.212 77.16 175.452 77.24 174.492 77.24ZM174.492 75.416C175.372 75.416 175.812 75.184 175.812 74.72V71.192C175.812 70.648 175.372 70.376 174.492 70.376C173.596 70.376 173.148 70.648 173.148 71.192V74.72C173.148 75.184 173.596 75.416 174.492 75.416Z" fill="white"/>
<path d="M239.744 211.673C240.724 191.09 242.684 170.508 245.951 150.252C245.951 149.925 245.951 149.598 245.951 149.272C245.625 137.183 207.399 134.57 200.538 134.57C186.163 134.57 154.799 138.49 154.799 149.598C154.799 149.925 154.799 150.579 154.799 150.905C158.066 170.508 160.026 191.09 161.006 211.673C147.938 216.247 140.75 223.108 140.75 230.949C140.75 234.543 142.057 237.81 144.671 240.75L146.958 238.463C145.324 236.176 144.344 233.889 144.344 230.949C144.344 224.415 151.205 218.534 163.293 214.287L164.273 213.96V212.653C163.62 191.744 161.66 170.834 158.066 150.579C158.066 150.579 158.066 149.925 158.066 149.598C158.066 143.391 181.262 137.837 200.538 137.837C213.28 137.837 242.684 142.084 243.011 149.598V149.925C239.744 170.508 237.457 191.744 236.803 212.98V214.287L237.784 214.613C250.199 218.861 256.733 224.741 256.733 231.275C256.733 244.997 228.309 253.492 200.538 253.492V256.759C229.942 256.759 260 247.938 260 231.275C260 223.434 252.812 216.574 239.744 211.673Z" fill="#FF2020"/>
<path d="M178.648 224.415C170.154 224.415 163.293 229.969 161.006 237.81C160.025 236.829 158.392 236.503 157.085 236.503C153.491 236.503 150.551 239.443 150.551 243.037C150.551 245.977 152.511 248.591 155.451 249.244V265.58H158.719V249.244C159.699 248.918 160.352 248.591 161.006 247.938C163.293 255.779 170.154 261.333 178.648 261.333C188.776 261.333 196.944 253.165 196.944 243.037C196.944 232.909 188.776 224.415 178.648 224.415ZM157.085 245.977C155.451 245.977 153.818 244.67 153.818 242.71C153.818 240.75 155.125 239.443 157.085 239.443C159.045 239.443 160.352 240.75 160.352 242.71C160.352 244.67 158.719 245.977 157.085 245.977ZM178.648 257.739C170.154 257.739 163.619 250.878 163.619 242.71C163.619 234.543 170.48 227.682 178.648 227.682C187.143 227.682 193.677 234.543 193.677 242.71C193.677 250.878 187.143 257.739 178.648 257.739Z" fill="#FF2020"/>
<path d="M178.648 231.602V234.869C182.896 234.869 186.49 238.462 186.49 242.71H189.757C189.757 236.502 184.856 231.602 178.648 231.602Z" fill="#FF2020"/>
<path d="M208.709 241.077C209.036 241.403 215.243 245.324 223.084 245.324C226.678 245.324 230.599 244.344 234.192 241.73C241.053 236.83 239.747 226.702 239.747 226.375L239.42 224.088L206.422 239.443L208.709 241.077ZM236.806 228.989C236.806 231.929 236.153 236.503 232.559 239.116C225.698 244.017 217.53 241.403 213.61 239.77L236.806 228.989Z" fill="#FF2020"/>
<path d="M182.381 197.249C182.715 196.914 183.165 196.726 183.636 196.726H227.202C227.997 196.726 228.395 197.688 227.83 198.242L219.221 206.851C218.886 207.186 218.437 207.374 217.966 207.374H174.4C173.605 207.374 173.207 206.412 173.772 205.857L182.381 197.249Z" fill="#FF2020"/>
<path d="M182.381 165.116C182.715 164.781 183.165 164.593 183.636 164.593H227.202C227.997 164.593 228.395 165.555 227.83 166.109L219.221 174.708C218.886 175.042 218.437 175.231 217.966 175.231H174.4C173.605 175.231 173.207 174.268 173.772 173.714L182.381 165.116Z" fill="#FF2020"/>
<path d="M219.221 181.078C218.886 180.743 218.437 180.555 217.966 180.555H174.4C173.605 180.555 173.207 181.517 173.772 182.071L182.381 190.669C182.715 191.004 183.165 191.192 183.636 191.192H227.202C227.997 191.192 228.395 190.23 227.83 189.676L219.221 181.078Z" fill="#FF2020"/>
</g>
<defs>
<radialGradient id="paint0_radial_2806_51" cx="0" cy="0" r="1" gradientUnits="userSpaceOnUse" gradientTransform="translate(196 198) rotate(180) scale(169 171.485)">
<stop offset="0.510417" stop-color="#A80808" stop-opacity="0"/>
<stop offset="1" stop-color="#A80808" stop-opacity="0.35"/>
</radialGradient>
<radialGradient id="paint1_radial_2806_51" cx="0" cy="0" r="1" gradientUnits="userSpaceOnUse" gradientTransform="translate(198 193) rotate(-90) scale(166 175.051)">
<stop offset="0.484375" stop-color="#750000" stop-opacity="0"/>
<stop offset="1" stop-color="#750000" stop-opacity="0.35"/>
</radialGradient>
<radialGradient id="paint2_radial_2806_51" cx="0" cy="0" r="1" gradientUnits="userSpaceOnUse" gradientTransform="translate(198 202) rotate(90) scale(171)">
<stop offset="0.536458" stop-color="#D61515" stop-opacity="0"/>
<stop offset="1" stop-color="#D61515" stop-opacity="0.35"/>
</radialGradient>
<radialGradient id="paint3_radial_2806_51" cx="0" cy="0" r="1" gradientUnits="userSpaceOnUse" gradientTransform="translate(202 200) scale(171 173)">
<stop offset="0.494792" stop-color="#FF2020" stop-opacity="0"/>
<stop offset="1" stop-color="#FF2020" stop-opacity="0.35"/>
</radialGradient>
<clipPath id="clip0_2806_51">
<rect width="400" height="400" fill="white"/>
</clipPath>
</defs>
</svg>
