<svg width="136" height="48" viewBox="0 0 136 48" fill="none" xmlns="http://www.w3.org/2000/svg">
<g clip-path="url(#clip0_368_250)">
<path d="M52.5596 4.56H54.8396L61.5596 14.88V4.56H63.2396V17.04H60.9596L54.2396 6.6V17.04H52.5596V4.56Z" fill="white"/>
<path d="M68.4 17.16C68.04 17.16 67.56 16.92 67.2 16.8C66.72 16.56 66.48 16.32 66.24 15.84C66 15.36 66 14.88 66 14.16V10.92C66 10.32 66.12 9.84 66.24 9.36C66.36 8.88 66.6 8.64 66.84 8.4C67.08 8.16 67.32 8.04 67.68 7.92C68.04 7.8 68.52 7.68 68.88 7.68C69.36 7.68 69.84 7.68 70.32 7.68C71.04 7.68 71.52 7.68 71.88 7.68C72.24 7.68 72.6 7.8 72.96 7.92C73.2 7.92 73.56 8.16 73.8 8.4C74.04 8.64 74.16 9 74.4 9.36C74.52 9.84 74.64 10.32 74.64 10.92V14.16C74.64 15.24 74.4 16.08 73.92 16.56C73.68 16.8 73.44 16.92 73.08 17.04C72.72 17.16 72.24 17.28 71.88 17.28C71.4 17.28 70.92 17.28 70.44 17.28C69.48 17.28 68.88 17.28 68.4 17.16ZM71.4 16.08C71.64 16.08 71.88 15.96 72.12 15.84C72.36 15.72 72.48 15.6 72.6 15.36C72.72 15.12 72.72 14.76 72.72 14.4V10.68C72.72 10.08 72.6 9.72 72.48 9.48C72.36 9.24 72.12 9 71.76 9C71.4 8.88 70.92 8.88 70.2 8.88C69.48 8.88 69 8.88 68.64 9C68.28 9.12 68.04 9.24 67.92 9.48C67.8 9.72 67.68 10.2 67.68 10.68V14.4C67.68 14.88 67.68 15.12 67.8 15.36C67.92 15.6 68.04 15.72 68.28 15.84C68.52 15.96 68.76 16.08 69 16.08C69.24 16.08 69.6 16.08 70.2 16.08C70.8 16.08 71.16 16.08 71.4 16.08Z" fill="white"/>
<path d="M79.32 17.04C78.84 16.92 78.6 16.56 78.36 16.2C78.12 15.84 78 15.12 78 14.4V8.88H75.96V7.8H78V4.92H79.8V7.8H83.16V8.88H79.8V14.4C79.8 14.88 79.8 15.24 79.92 15.48C80.04 15.72 80.28 15.84 80.52 15.96C80.76 16.08 81.24 16.08 81.72 16.08C81.84 16.08 82.32 16.08 83.16 15.96V17.04C82.56 17.16 81.84 17.16 81.24 17.16C80.28 17.28 79.68 17.16 79.32 17.04Z" fill="white"/>
<path d="M86.9996 17.16C86.6396 17.16 86.1596 16.92 85.7996 16.8C85.3196 16.56 85.0796 16.32 84.8396 15.84C84.5996 15.36 84.5996 14.88 84.5996 14.16V10.92C84.5996 10.32 84.7196 9.84 84.8396 9.36C84.9596 8.88 85.1996 8.64 85.4396 8.4C85.6796 8.16 85.9196 8.04 86.2796 7.92C86.6396 7.8 87.1196 7.68 87.4796 7.68C87.9596 7.68 88.4396 7.68 88.9196 7.68C89.6396 7.68 90.1196 7.68 90.4796 7.68C90.8396 7.68 91.1996 7.8 91.5596 7.92C91.9196 7.92 92.1596 8.16 92.3996 8.4C92.6396 8.64 92.7596 9 92.9996 9.36C93.1196 9.84 93.2396 10.32 93.2396 10.92V14.16C93.2396 15.24 92.9996 16.08 92.5196 16.56C92.2796 16.8 92.0396 16.92 91.6796 17.04C91.3196 17.16 90.8396 17.28 90.4796 17.28C89.9996 17.28 89.5196 17.28 89.0396 17.28C88.0796 17.28 87.4796 17.28 86.9996 17.16ZM89.9996 16.08C90.2396 16.08 90.4796 15.96 90.7196 15.84C90.9596 15.72 91.0796 15.6 91.1996 15.36C91.3196 15.12 91.3196 14.76 91.3196 14.4V10.68C91.3196 10.08 91.1996 9.72 91.0796 9.48C90.9596 9.24 90.7196 9 90.3596 9C89.9996 8.88 89.5196 8.88 88.7996 8.88C88.0796 8.88 87.5996 8.88 87.2396 9C86.8796 9.12 86.6396 9.24 86.5196 9.48C86.3996 9.6 86.3996 10.08 86.3996 10.68V14.4C86.3996 14.88 86.3996 15.12 86.5196 15.36C86.6396 15.6 86.7596 15.72 86.9996 15.84C87.2396 15.96 87.4796 16.08 87.7196 16.08C87.9596 16.08 88.3196 16.08 88.9196 16.08C89.3996 16.08 89.7596 16.08 89.9996 16.08Z" fill="white"/>
<path d="M95.8799 7.8H97.5599V9.36C97.5599 9.12 97.6799 8.76 97.9199 8.52C98.1599 8.28 98.5199 8.04 98.8799 7.92C99.2399 7.8 99.7199 7.68 100.08 7.68H100.92V9.12H99.9599C99.1199 9.12 98.5199 9.24 98.1599 9.48C97.7999 9.72 97.5599 10.08 97.5599 10.68V17.28H95.8799V7.8Z" fill="white"/>
<path d="M102.6 4.44H104.28V6.24H102.6V4.44ZM102.6 7.8H104.28V17.04H102.6V7.8Z" fill="white"/>
<path d="M109.44 17.16C109.08 17.16 108.6 16.92 108.24 16.8C107.76 16.56 107.52 16.32 107.28 15.84C107.04 15.36 107.04 14.88 107.04 14.16V10.92C107.04 10.32 107.16 9.84 107.28 9.36C107.4 8.88 107.64 8.64 107.88 8.4C108.12 8.16 108.36 8.04 108.72 7.92C109.08 7.8 109.56 7.68 109.92 7.68C110.4 7.68 110.88 7.68 111.36 7.68C112.08 7.68 112.56 7.68 112.92 7.68C113.28 7.68 113.64 7.8 114 7.92C114.36 8.04 114.72 8.16 114.96 8.4C115.2 8.64 115.32 9 115.56 9.36C115.68 9.84 115.8 10.32 115.8 10.92V14.16C115.8 15.24 115.56 16.08 115.08 16.56C114.84 16.8 114.6 16.92 114.24 17.04C113.88 17.16 113.4 17.28 113.04 17.28C112.56 17.28 112.08 17.28 111.6 17.28C110.4 17.28 109.8 17.28 109.44 17.16ZM112.44 16.08C112.68 16.08 112.92 15.96 113.16 15.84C113.4 15.72 113.52 15.6 113.64 15.36C113.76 15.12 113.76 14.76 113.76 14.4V10.68C113.76 10.08 113.64 9.72 113.52 9.48C113.4 9.24 113.16 9 112.8 9C112.44 8.88 111.96 8.88 111.24 8.88C110.52 8.88 110.04 8.88 109.68 9C109.32 9.12 109.08 9.24 108.96 9.48C108.84 9.72 108.72 10.2 108.72 10.68V14.4C108.72 14.88 108.72 15.12 108.84 15.36C108.96 15.6 109.08 15.72 109.32 15.84C109.56 15.96 109.8 16.08 110.04 16.08C110.28 16.08 110.64 16.08 111.24 16.08C111.84 16.08 112.2 16.08 112.44 16.08Z" fill="white"/>
<path d="M118.56 16.68C118.08 16.2 117.84 15.6 117.84 14.64V7.8H119.52V14.52C119.52 14.76 119.52 15 119.64 15.12C119.64 15.24 119.76 15.36 119.88 15.6C120.12 15.96 120.72 16.08 121.56 16.08C122.52 16.08 123.12 15.96 123.6 15.84C123.96 15.72 124.2 15.36 124.2 14.88V7.8H125.88V17.04H124.2V15.96C124.08 16.8 123 17.28 121.2 17.28C119.88 17.28 119.04 17.04 118.56 16.68Z" fill="white"/>
<path d="M128.4 17.04V15.72C129.84 15.96 130.92 16.08 131.64 16.08C132.48 16.08 133.08 15.96 133.44 15.84C133.8 15.72 133.92 15.36 133.92 15V14.04C133.92 13.68 133.8 13.32 133.56 13.2C133.32 13.08 132.84 12.96 132.24 12.96H131.16C130.2 12.96 129.48 12.72 129 12.36C128.52 12 128.28 11.4 128.28 10.68V9.72C128.28 8.28 129.72 7.56 132.48 7.56C132.72 7.56 133.68 7.56 135.36 7.68V8.88C134.16 8.76 133.2 8.64 132.48 8.64C131.52 8.64 130.92 8.76 130.56 8.88C130.2 9 130.08 9.36 130.08 9.84V10.68C130.08 11.28 130.68 11.64 131.76 11.64H132.84C134.76 11.64 135.72 12.36 135.72 13.8V14.64C135.72 15.6 135.36 16.32 134.76 16.68C134.04 17.04 133.08 17.28 131.76 17.28C130.56 17.28 129.48 17.16 128.4 17.04Z" fill="white"/>
<path d="M52.5604 29.28H50.4004V28.2H52.5604V26.76C52.5604 25.68 52.8004 24.96 53.2804 24.6C53.7604 24.24 54.4804 24 55.6804 24C56.4004 24 57.0004 24 57.6004 24.12V25.2C57.1204 25.08 56.6404 25.08 56.2804 25.08C55.6804 25.08 55.3204 25.08 55.0804 25.2C54.8404 25.32 54.6004 25.44 54.4804 25.68C54.3604 25.92 54.3604 26.28 54.3604 26.64V28.2H57.6004V29.28H54.3604V37.44H52.6804V29.28H52.5604ZM58.8004 24H60.4804V25.92H58.8004V24ZM58.8004 28.2H60.4804V37.44H58.8004V28.2Z" fill="white"/>
<path d="M63.5996 28.2H65.2796V29.28C65.3996 28.44 66.4796 27.96 68.2796 27.96C69.4796 27.96 70.3196 28.2 70.7996 28.56C71.2796 29.04 71.5196 29.64 71.5196 30.6V37.44H69.8396V30.72C69.8396 30.48 69.8396 30.24 69.8396 30.12C69.8396 30 69.7196 29.76 69.5996 29.64C69.3596 29.28 68.7596 29.16 67.9196 29.16C67.1996 29.16 66.7196 29.16 66.3596 29.28C65.9996 29.4 65.7596 29.52 65.6396 29.76C65.5196 30 65.3996 30.24 65.3996 30.72V37.44H63.5996V28.2Z" fill="white"/>
<path d="M75.3599 37.44C74.8799 37.32 74.5199 36.96 74.2799 36.6C74.0399 36.12 73.9199 35.52 73.9199 34.8C73.9199 34.08 74.0399 33.6 74.1599 33.12C74.2799 32.64 74.6399 32.4 75.1199 32.28C75.5999 32.16 76.3199 32.04 77.1599 32.04H79.9199V30.6C79.9199 30.24 79.7999 30 79.6799 29.76C79.5599 29.52 79.3199 29.4 78.9599 29.4C78.5999 29.28 78.2399 29.28 77.6399 29.28C76.6799 29.28 75.5999 29.4 74.3999 29.52V28.2C75.7199 28.08 76.7999 28.08 77.8799 28.08C78.9599 28.08 79.7999 28.2 80.2799 28.32C80.7599 28.44 81.1199 28.8 81.3599 29.16C81.5999 29.52 81.5999 30.12 81.5999 30.96V37.56H79.9199V36.72C79.7999 37.44 78.8399 37.8 77.1599 37.8C76.5599 37.68 75.8399 37.56 75.3599 37.44ZM77.7599 36.48C78.3599 36.48 78.9599 36.48 79.3199 36.36C79.9199 36.24 80.1599 36 80.1599 35.52V33H77.5199C76.9199 33 76.5599 33 76.3199 33.12C76.0799 33.24 75.9599 33.36 75.8399 33.6C75.7199 33.84 75.7199 34.2 75.7199 34.68C75.7199 35.16 75.7199 35.52 75.8399 35.76C75.9599 36 76.0799 36.24 76.3199 36.24C76.5599 36.36 76.9199 36.36 77.3999 36.36H77.7599V36.48Z" fill="white"/>
<path d="M84.8398 28.2H86.5198V29.28C86.6398 28.44 87.7198 27.96 89.5198 27.96C90.7198 27.96 91.5598 28.2 92.0398 28.56C92.5198 29.04 92.7599 29.64 92.7599 30.6V37.44H91.1998V30.72C91.1998 30.48 91.1998 30.24 91.1998 30.12C91.1998 30 91.0799 29.76 90.9599 29.64C90.7199 29.28 90.1198 29.16 89.2798 29.16C88.5598 29.16 88.0798 29.16 87.7198 29.28C87.3598 29.4 87.1198 29.52 86.9998 29.76C86.8798 30 86.7599 30.24 86.7599 30.72V37.44H85.0798V28.2H84.8398Z" fill="white"/>
<path d="M98.2795 37.68C98.0395 37.68 97.6795 37.56 97.3195 37.44C96.9595 37.32 96.5995 37.2 96.3595 36.96C96.1195 36.72 95.9995 36.48 95.7595 36C95.6395 35.64 95.5195 35.16 95.5195 34.56V31.2C95.5195 30.12 95.7595 29.4 96.1195 28.92C96.3595 28.68 96.5995 28.44 96.8395 28.32C97.0795 28.2 97.3195 28.08 97.6795 28.08C98.0395 28.08 98.3995 27.96 98.6395 27.96C98.8795 27.96 99.3595 27.96 99.8395 27.96C100.68 27.96 101.64 28.08 102.48 28.2V29.52C101.4 29.28 100.56 29.16 99.5995 29.16C98.8795 29.16 98.3995 29.16 98.1595 29.28C97.9195 29.4 97.6795 29.52 97.5595 29.76C97.4395 30 97.3195 30.36 97.3195 30.96V34.8C97.3195 35.28 97.4395 35.64 97.5595 35.88C97.6795 36.12 97.9195 36.24 98.2795 36.36C98.6395 36.48 99.1195 36.48 99.8395 36.48C100.8 36.48 101.76 36.36 102.6 36.12V37.44C101.76 37.56 100.68 37.68 99.5995 37.68C98.9995 37.68 98.5195 37.68 98.2795 37.68Z" fill="white"/>
<path d="M104.4 34.8V31.2C104.4 30.12 104.76 29.28 105.36 28.8C105.96 28.32 107.04 28.08 108.48 28.08C109.8 28.08 110.88 28.32 111.48 28.8C112.08 29.28 112.44 30.12 112.44 31.2V33.24H106.2V34.68C106.2 35.28 106.44 35.76 106.92 36.12C107.4 36.36 108 36.6 108.96 36.6C109.8 36.6 110.88 36.48 112.08 36.12V37.44C110.88 37.68 109.8 37.8 108.72 37.8C105.84 37.68 104.4 36.72 104.4 34.8ZM110.76 32.04V30.6C110.76 30 110.64 29.64 110.28 29.4C109.92 29.16 109.32 29.04 108.6 29.04C107.76 29.04 107.28 29.16 106.92 29.4C106.56 29.64 106.44 30 106.44 30.6V32.04H110.76Z" fill="white"/>
<path d="M36.36 28.32C36.72 20.76 37.44 13.2 38.64 5.76C38.64 5.64 38.64 5.52 38.64 5.4C38.52 0.96 24.48 0 21.96 0C16.68 0 5.16 1.44 5.16 5.52C5.16 5.64 5.16 5.88 5.16 6C6.36 13.2 7.08 20.76 7.44 28.32C2.64 30 0 32.52 0 35.4C0 36.72 0.48 37.92 1.44 39L2.28 38.16C1.68 37.32 1.32 36.48 1.32 35.4C1.32 33 3.84 30.84 8.28 29.28L8.64 29.16V28.68C8.4 21 7.68 13.32 6.36 5.88C6.36 5.88 6.36 5.64 6.36 5.52C6.36 3.24 14.88 1.2 21.96 1.2C26.64 1.2 37.44 2.76 37.56 5.52V5.64C36.36 13.2 35.52 21 35.28 28.8V29.28L35.64 29.4C40.2 30.96 42.6 33.12 42.6 35.52C42.6 40.56 32.16 43.68 21.96 43.68V44.88C32.76 44.88 43.8 41.64 43.8 35.52C43.8 32.64 41.16 30.12 36.36 28.32Z" fill="#FF2020"/>
<path d="M13.9196 33C10.7996 33 8.27961 35.04 7.43961 37.92C7.07961 37.56 6.47961 37.44 5.99961 37.44C4.67961 37.44 3.59961 38.52 3.59961 39.84C3.59961 40.92 4.31961 41.88 5.39961 42.12V48.12H6.59961V42.12C6.95961 42 7.19961 41.88 7.43961 41.64C8.27961 44.52 10.7996 46.56 13.9196 46.56C17.6396 46.56 20.6396 43.56 20.6396 39.84C20.6396 36.12 17.6396 33 13.9196 33ZM5.99961 40.92C5.39961 40.92 4.79961 40.44 4.79961 39.72C4.79961 39 5.27961 38.52 5.99961 38.52C6.71961 38.52 7.19961 39 7.19961 39.72C7.19961 40.44 6.59961 40.92 5.99961 40.92ZM13.9196 45.24C10.7996 45.24 8.39961 42.72 8.39961 39.72C8.39961 36.72 10.9196 34.2 13.9196 34.2C17.0396 34.2 19.4396 36.72 19.4396 39.72C19.4396 42.72 17.0396 45.24 13.9196 45.24Z" fill="#FF2020"/>
<path d="M13.9199 35.6398V36.8398C15.4799 36.8398 16.7999 38.1598 16.7999 39.7198H17.9999C17.9999 37.4398 16.1999 35.6398 13.9199 35.6398Z" fill="#FF2020"/>
<path d="M24.9611 39.1201C25.0811 39.2401 27.3611 40.6801 30.2411 40.6801C31.5611 40.6801 33.0011 40.3201 34.3211 39.3601C36.8411 37.5601 36.3611 33.8401 36.3611 33.7201L36.2411 32.8801L24.1211 38.5201L24.9611 39.1201ZM35.2811 34.6801C35.2811 35.7601 35.0411 37.4401 33.7211 38.4001C31.2011 40.2001 28.2011 39.2401 26.7611 38.6401L35.2811 34.6801Z" fill="#FF2020"/>
<path d="M15.2906 23.022C15.4135 22.8991 15.5787 22.8299 15.7516 22.8299H31.7533C32.0453 22.8299 32.1913 23.1834 31.9839 23.387L28.8219 26.5489C28.699 26.6719 28.5338 26.741 28.3609 26.741H12.3592C12.0672 26.741 11.9212 26.3876 12.1286 26.184L15.2906 23.022Z" fill="#FF2020"/>
<path d="M15.2906 11.2196C15.4135 11.0967 15.5787 11.0275 15.7516 11.0275H31.7533C32.0453 11.0275 32.1913 11.381 31.9839 11.5846L28.8219 14.7427C28.699 14.8656 28.5338 14.9348 28.3609 14.9348H12.3592C12.0672 14.9348 11.9212 14.5813 12.1286 14.3777L15.2906 11.2196Z" fill="#FF2020"/>
<path d="M28.8219 17.0824C28.699 16.9594 28.5338 16.8903 28.3609 16.8903H12.3592C12.0672 16.8903 11.9212 17.2437 12.1286 17.4474L15.2906 20.6054C15.4135 20.7284 15.5787 20.7975 15.7516 20.7975H31.7533C32.0453 20.7975 32.1913 20.4441 31.9839 20.2405L28.8219 17.0824Z" fill="#FF2020"/>
</g>
<defs>
<clipPath id="clip0_368_250">
<rect width="135.6" height="48" fill="white"/>
</clipPath>
</defs>
</svg>
