<svg width="168" height="180" viewBox="0 0 168 180" fill="none" xmlns="http://www.w3.org/2000/svg">
<g filter="url(#filter0_d_416_237)">
<path d="M59.7091 104.94C60.0358 105.267 60.3625 105.267 60.6892 105.594H61.0159L61.9961 106.247L63.3029 103.96L62.3228 103.307L61.9961 102.98C61.6693 102.653 61.3426 102.653 61.3426 102.653C60.3625 102 59.7091 101.346 59.3824 100.693C59.0556 99.7129 58.7289 98.7327 58.7289 96.7725H56.1152C56.1152 101.346 57.0954 103.307 59.7091 104.94Z" fill="#FF2020"/>
<path d="M105.446 100.367C106.753 99.7135 107.08 98.7334 107.08 97.7532V51.0334C107.08 50.0532 106.427 49.3998 105.446 48.7464L87.4773 39.2717C85.8437 38.2916 83.23 38.2916 81.2697 39.2717L63.3006 48.7464C62.3204 49.3998 61.667 50.0532 61.667 51.0334V97.7532C61.667 97.7532 61.667 97.7532 61.667 98.0799C61.667 99.0601 62.3204 100.04 63.3006 100.694L81.2697 110.168C82.9033 111.148 85.517 111.148 87.4773 110.168L105.446 100.367ZM104.466 70.9628L88.4574 62.4683L104.466 53.9738V70.9628V70.9628ZM104.14 74.2299L86.1704 83.3779H85.8437V64.1019H86.1704L104.14 74.2299ZM64.9341 51.0334L82.9033 41.5587C83.8834 41.232 85.517 41.232 86.4971 41.5587L104.466 51.0334L86.1704 60.508C85.1903 60.8347 83.5567 60.8347 82.5766 60.508L64.9341 51.0334ZM82.9033 64.4286V83.7046H82.5766L64.6074 74.2299L82.5766 64.7553C82.9033 64.7553 82.9033 64.7553 82.9033 64.4286ZM64.6074 54.3005L80.6163 62.795L64.6074 71.2895V54.3005ZM84.5369 107.881C83.23 107.881 82.2499 107.228 81.5964 106.901L64.9341 98.0799V77.4971L81.5964 86.3183C83.23 87.2984 85.8437 87.2984 87.804 86.3183L104.466 77.4971V98.0799L87.4773 106.901C86.4971 107.228 85.517 107.881 84.5369 107.881Z" fill="#FF2020"/>
<path d="M109.041 44.1721C108.714 43.8454 108.388 43.8454 108.061 43.5187H107.734L106.754 42.8652L105.447 45.1522L106.427 45.8056L106.754 46.1324C107.081 46.4591 107.408 46.4591 107.408 46.4591C108.388 47.1125 109.041 47.7659 109.368 48.4193C109.695 49.0728 110.021 50.3796 110.021 52.0132H112.962C112.962 47.7659 111.982 45.8056 109.041 44.1721Z" fill="#FF2020"/>
<path d="M123.744 101.673C124.724 81.0906 126.684 60.5077 129.951 40.2515C129.951 39.9248 129.951 39.5981 129.951 39.2714C129.625 27.183 91.3993 24.5693 84.5384 24.5693C70.163 24.5693 38.7986 28.4899 38.7986 39.5981C38.7986 39.9248 38.7986 40.5782 38.7986 40.905C42.0658 60.5077 44.026 81.0906 45.0062 101.673C31.9377 106.247 24.75 113.108 24.75 120.949C24.75 124.543 26.0568 127.81 28.6705 130.751L30.9575 128.464C29.324 126.177 28.3438 123.89 28.3438 120.949C28.3438 114.415 35.2048 108.534 47.2932 104.287L48.2733 103.96V102.654C47.6199 81.744 45.6596 60.8344 42.0658 40.5782C42.0658 40.5782 42.0658 39.9248 42.0658 39.5981C42.0658 33.3906 65.2623 27.8365 84.5384 27.8365C97.2801 27.8365 126.684 32.0837 127.011 39.5981V39.9248C123.744 60.5077 121.457 81.744 120.803 102.98V104.287L121.784 104.614C134.199 108.861 140.733 114.742 140.733 121.276C140.733 134.998 112.309 143.493 84.5384 143.493V146.76C113.942 146.76 144 137.939 144 121.276C144 113.435 136.812 106.574 123.744 101.673Z" fill="#FF2020"/>
<path d="M62.649 114.415C54.1545 114.415 47.2935 119.969 45.0066 127.81C44.0264 126.83 42.3929 126.503 41.086 126.503C37.4922 126.503 34.5518 129.444 34.5518 133.038C34.5518 135.978 36.512 138.592 39.4524 139.245V155.581H42.7196V139.245C43.6997 138.918 44.3531 138.592 45.0066 137.938C47.2935 145.779 54.1545 151.334 62.649 151.334C72.7771 151.334 80.9449 143.166 80.9449 133.038C80.9449 122.91 72.7771 114.415 62.649 114.415ZM41.086 135.978C39.4524 135.978 37.8189 134.671 37.8189 132.711C37.8189 130.751 39.1257 129.444 41.086 129.444C43.0463 129.444 44.3531 130.751 44.3531 132.711C44.3531 134.671 42.7196 135.978 41.086 135.978ZM62.649 147.74C54.1545 147.74 47.6203 140.879 47.6203 132.711C47.6203 124.543 54.4812 117.682 62.649 117.682C71.1435 117.682 77.6778 124.543 77.6778 132.711C77.6778 140.879 71.1435 147.74 62.649 147.74Z" fill="#FF2020"/>
<path d="M62.6494 121.603V124.87C66.8967 124.87 70.4905 128.463 70.4905 132.711H73.7576C73.7576 126.503 68.8569 121.603 62.6494 121.603Z" fill="#FF2020"/>
<path d="M92.7069 131.078C93.0336 131.405 99.2412 135.325 107.082 135.325C110.676 135.325 114.597 134.345 118.19 131.731C125.051 126.831 123.745 116.703 123.745 116.376L123.418 114.089L90.4199 129.444L92.7069 131.078ZM120.804 118.99C120.804 121.93 120.151 126.504 116.557 129.118C109.696 134.018 101.528 131.405 97.6076 129.771L120.804 118.99Z" fill="#FF2020"/>
</g>
<defs>
<filter id="filter0_d_416_237" x="0.75" y="0.569336" width="167.25" height="179.011" filterUnits="userSpaceOnUse" color-interpolation-filters="sRGB">
<feFlood flood-opacity="0" result="BackgroundImageFix"/>
<feColorMatrix in="SourceAlpha" type="matrix" values="0 0 0 0 0 0 0 0 0 0 0 0 0 0 0 0 0 0 127 0" result="hardAlpha"/>
<feOffset/>
<feGaussianBlur stdDeviation="12"/>
<feComposite in2="hardAlpha" operator="out"/>
<feColorMatrix type="matrix" values="0 0 0 0 1 0 0 0 0 0.12549 0 0 0 0 0.12549 0 0 0 0.5 0"/>
<feBlend mode="normal" in2="BackgroundImageFix" result="effect1_dropShadow_416_237"/>
<feBlend mode="normal" in="SourceGraphic" in2="effect1_dropShadow_416_237" result="shape"/>
</filter>
</defs>
</svg>
