<svg width="400" height="400" viewBox="0 0 400 400" fill="none" xmlns="http://www.w3.org/2000/svg">
<path d="M93.7778 57.3335L80.6667 39.3335C30.6667 76.6668 0.666667 135.334 0 197.778H22.2222C22.8889 142.445 49.3333 90.4446 93.7778 57.3335Z" fill="#A80808"/>
<path d="M84.4443 36.8889L97.5555 54.8889C126.889 34 161.778 22.6667 197.778 22.2222V0C157.111 0.444444 117.555 13.3333 84.4443 36.8889Z" fill="#750000"/>
<path d="M202.223 0V22.2222C299.334 23.3333 377.778 102.444 377.778 200C377.778 297.333 299.334 376.444 202.223 377.778V400C311.556 398.889 400 309.778 400 200C400 90.2222 311.556 1.11111 202.223 0Z" fill="#FF2020"/>
<path d="M197.778 377.778C101.333 376.667 23.5556 298.667 22.2222 202.222H0C1.11111 310.889 89.1111 398.667 197.778 400V377.778Z" fill="#D61515"/>
</svg>
