<svg width="348" height="348" viewBox="0 0 348 348" fill="none" xmlns="http://www.w3.org/2000/svg">
<path d="M70.4448 34.8887C27.3337 67.1109 1.33366 118 0.666992 171.778H170L70.4448 34.8887Z" fill="url(#paint0_radial_416_228)"/>
<path d="M171.778 166.667V0.666504C136.444 1.11095 102.889 11.9998 74 32.4443L171.778 166.667Z" fill="url(#paint1_radial_416_228)"/>
<path d="M171.778 176.222H0.666992C1.7781 270 78.0003 346 171.778 347.333V176.222Z" fill="url(#paint2_radial_416_228)"/>
<path d="M176.223 0.666504V347.333C221.778 346.666 264.445 328.889 296.667 296.666C329.334 263.778 347.334 220.222 347.334 174C347.334 79.1109 270.667 1.77761 176.223 0.666504Z" fill="url(#paint3_radial_416_228)"/>
<defs>
<radialGradient id="paint0_radial_416_228" cx="0" cy="0" r="1" gradientUnits="userSpaceOnUse" gradientTransform="translate(170 172) rotate(180) scale(169 171.485)">
<stop offset="0.510417" stop-color="#A80808" stop-opacity="0"/>
<stop offset="1" stop-color="#A80808" stop-opacity="0.35"/>
</radialGradient>
<radialGradient id="paint1_radial_416_228" cx="0" cy="0" r="1" gradientUnits="userSpaceOnUse" gradientTransform="translate(172 167) rotate(-90) scale(166 175.051)">
<stop offset="0.484375" stop-color="#750000" stop-opacity="0"/>
<stop offset="1" stop-color="#750000" stop-opacity="0.35"/>
</radialGradient>
<radialGradient id="paint2_radial_416_228" cx="0" cy="0" r="1" gradientUnits="userSpaceOnUse" gradientTransform="translate(172 176) rotate(90) scale(171)">
<stop offset="0.536458" stop-color="#D61515" stop-opacity="0"/>
<stop offset="1" stop-color="#D61515" stop-opacity="0.35"/>
</radialGradient>
<radialGradient id="paint3_radial_416_228" cx="0" cy="0" r="1" gradientUnits="userSpaceOnUse" gradientTransform="translate(176 174) scale(171 173)">
<stop offset="0.494792" stop-color="#FF2020" stop-opacity="0"/>
<stop offset="1" stop-color="#FF2020" stop-opacity="0.35"/>
</radialGradient>
</defs>
</svg>
