<svg width="170" height="60" viewBox="0 0 170 60" fill="none" xmlns="http://www.w3.org/2000/svg">
<g clip-path="url(#clip0_474_25)">
<path d="M65.7002 5.7002H68.5502L76.9502 18.6002V5.7002H79.0502V21.3002H76.2002L67.8002 8.2502V21.3002H65.7002V5.7002Z" fill="white"/>
<path d="M85.5 21.4496C85.05 21.4496 84.45 21.1496 84 20.9996C83.4 20.6996 83.1 20.3996 82.8 19.7996C82.5 19.1996 82.5 18.5996 82.5 17.6996V13.6496C82.5 12.8996 82.65 12.2996 82.8 11.6996C82.95 11.0996 83.25 10.7996 83.55 10.4996C83.85 10.1996 84.15 10.0496 84.6 9.89961C85.05 9.74961 85.65 9.59961 86.1 9.59961C86.7 9.59961 87.3 9.59961 87.9 9.59961C88.8 9.59961 89.4 9.59961 89.85 9.59961C90.3 9.59961 90.75 9.74961 91.2 9.89961C91.5 9.89961 91.95 10.1996 92.25 10.4996C92.55 10.7996 92.7 11.2496 93 11.6996C93.15 12.2996 93.3 12.8996 93.3 13.6496V17.6996C93.3 19.0496 93 20.0996 92.4 20.6996C92.1 20.9996 91.8 21.1496 91.35 21.2996C90.9 21.4496 90.3 21.5996 89.85 21.5996C89.25 21.5996 88.65 21.5996 88.05 21.5996C86.85 21.5996 86.1 21.5996 85.5 21.4496ZM89.25 20.0996C89.55 20.0996 89.85 19.9496 90.15 19.7996C90.45 19.6496 90.6 19.4996 90.75 19.1996C90.9 18.8996 90.9 18.4496 90.9 17.9996V13.3496C90.9 12.5996 90.75 12.1496 90.6 11.8496C90.45 11.5496 90.15 11.2496 89.7 11.2496C89.25 11.0996 88.65 11.0996 87.75 11.0996C86.85 11.0996 86.25 11.0996 85.8 11.2496C85.35 11.3996 85.05 11.5496 84.9 11.8496C84.75 12.1496 84.6 12.7496 84.6 13.3496V17.9996C84.6 18.5996 84.6 18.8996 84.75 19.1996C84.9 19.4996 85.05 19.6496 85.35 19.7996C85.65 19.9496 85.95 20.0996 86.25 20.0996C86.55 20.0996 87 20.0996 87.75 20.0996C88.5 20.0996 88.95 20.0996 89.25 20.0996Z" fill="white"/>
<path d="M99.1502 21.3004C98.5502 21.1504 98.2502 20.7004 97.9502 20.2504C97.6502 19.8004 97.5002 18.9004 97.5002 18.0004V11.1004H94.9502V9.75039H97.5002V6.15039H99.7502V9.75039H103.95V11.1004H99.7502V18.0004C99.7502 18.6004 99.7502 19.0504 99.9002 19.3504C100.05 19.6504 100.35 19.8004 100.65 19.9504C100.95 20.1004 101.55 20.1004 102.15 20.1004C102.3 20.1004 102.9 20.1004 103.95 19.9504V21.3004C103.2 21.4504 102.3 21.4504 101.55 21.4504C100.35 21.6004 99.6002 21.4504 99.1502 21.3004Z" fill="white"/>
<path d="M108.75 21.4496C108.3 21.4496 107.7 21.1496 107.25 20.9996C106.65 20.6996 106.35 20.3996 106.05 19.7996C105.75 19.1996 105.75 18.5996 105.75 17.6996V13.6496C105.75 12.8996 105.9 12.2996 106.05 11.6996C106.2 11.0996 106.5 10.7996 106.8 10.4996C107.1 10.1996 107.4 10.0496 107.85 9.89961C108.3 9.74961 108.9 9.59961 109.35 9.59961C109.95 9.59961 110.55 9.59961 111.15 9.59961C112.05 9.59961 112.65 9.59961 113.1 9.59961C113.55 9.59961 114 9.74961 114.45 9.89961C114.9 9.89961 115.2 10.1996 115.5 10.4996C115.8 10.7996 115.95 11.2496 116.25 11.6996C116.4 12.2996 116.55 12.8996 116.55 13.6496V17.6996C116.55 19.0496 116.25 20.0996 115.65 20.6996C115.35 20.9996 115.05 21.1496 114.6 21.2996C114.15 21.4496 113.55 21.5996 113.1 21.5996C112.5 21.5996 111.9 21.5996 111.3 21.5996C110.1 21.5996 109.35 21.5996 108.75 21.4496ZM112.5 20.0996C112.8 20.0996 113.1 19.9496 113.4 19.7996C113.7 19.6496 113.85 19.4996 114 19.1996C114.15 18.8996 114.15 18.4496 114.15 17.9996V13.3496C114.15 12.5996 114 12.1496 113.85 11.8496C113.7 11.5496 113.4 11.2496 112.95 11.2496C112.5 11.0996 111.9 11.0996 111 11.0996C110.1 11.0996 109.5 11.0996 109.05 11.2496C108.6 11.3996 108.3 11.5496 108.15 11.8496C108 11.9996 108 12.5996 108 13.3496V17.9996C108 18.5996 108 18.8996 108.15 19.1996C108.3 19.4996 108.45 19.6496 108.75 19.7996C109.05 19.9496 109.35 20.0996 109.65 20.0996C109.95 20.0996 110.4 20.0996 111.15 20.0996C111.75 20.0996 112.2 20.0996 112.5 20.0996Z" fill="white"/>
<path d="M119.85 9.74961H121.95V11.6996C121.95 11.3996 122.1 10.9496 122.4 10.6496C122.7 10.3496 123.15 10.0496 123.6 9.89961C124.05 9.74961 124.65 9.59961 125.1 9.59961H126.15V11.3996H124.95C123.9 11.3996 123.15 11.5496 122.7 11.8496C122.25 12.1496 121.95 12.5996 121.95 13.3496V21.5996H119.85V9.74961Z" fill="white"/>
<path d="M128.25 5.5498H130.35V7.7998H128.25V5.5498ZM128.25 9.7498H130.35V21.2998H128.25V9.7498Z" fill="white"/>
<path d="M136.8 21.4496C136.35 21.4496 135.75 21.1496 135.3 20.9996C134.7 20.6996 134.4 20.3996 134.1 19.7996C133.8 19.1996 133.8 18.5996 133.8 17.6996V13.6496C133.8 12.8996 133.95 12.2996 134.1 11.6996C134.25 11.0996 134.55 10.7996 134.85 10.4996C135.15 10.1996 135.45 10.0496 135.9 9.89961C136.35 9.74961 136.95 9.59961 137.4 9.59961C138 9.59961 138.6 9.59961 139.2 9.59961C140.1 9.59961 140.7 9.59961 141.15 9.59961C141.6 9.59961 142.05 9.74961 142.5 9.89961C142.95 10.0496 143.4 10.1996 143.7 10.4996C144 10.7996 144.15 11.2496 144.45 11.6996C144.6 12.2996 144.75 12.8996 144.75 13.6496V17.6996C144.75 19.0496 144.45 20.0996 143.85 20.6996C143.55 20.9996 143.25 21.1496 142.8 21.2996C142.35 21.4496 141.75 21.5996 141.3 21.5996C140.7 21.5996 140.1 21.5996 139.5 21.5996C138 21.5996 137.25 21.5996 136.8 21.4496ZM140.55 20.0996C140.85 20.0996 141.15 19.9496 141.45 19.7996C141.75 19.6496 141.9 19.4996 142.05 19.1996C142.2 18.8996 142.2 18.4496 142.2 17.9996V13.3496C142.2 12.5996 142.05 12.1496 141.9 11.8496C141.75 11.5496 141.45 11.2496 141 11.2496C140.55 11.0996 139.95 11.0996 139.05 11.0996C138.15 11.0996 137.55 11.0996 137.1 11.2496C136.65 11.3996 136.35 11.5496 136.2 11.8496C136.05 12.1496 135.9 12.7496 135.9 13.3496V17.9996C135.9 18.5996 135.9 18.8996 136.05 19.1996C136.2 19.4996 136.35 19.6496 136.65 19.7996C136.95 19.9496 137.25 20.0996 137.55 20.0996C137.85 20.0996 138.3 20.0996 139.05 20.0996C139.8 20.0996 140.25 20.0996 140.55 20.0996Z" fill="white"/>
<path d="M148.2 20.85C147.6 20.25 147.3 19.5 147.3 18.3V9.75H149.4V18.15C149.4 18.45 149.4 18.75 149.55 18.9C149.55 19.05 149.7 19.2 149.85 19.5C150.15 19.95 150.9 20.1 151.95 20.1C153.15 20.1 153.9 19.95 154.5 19.8C154.95 19.65 155.25 19.2 155.25 18.6V9.75H157.35V21.3H155.25V19.95C155.1 21 153.75 21.6 151.5 21.6C149.85 21.6 148.8 21.3 148.2 20.85Z" fill="white"/>
<path d="M160.5 21.3002V19.6502C162.3 19.9502 163.65 20.1002 164.55 20.1002C165.6 20.1002 166.35 19.9502 166.8 19.8002C167.25 19.6502 167.4 19.2002 167.4 18.7502V17.5502C167.4 17.1002 167.25 16.6502 166.95 16.5002C166.65 16.3502 166.05 16.2002 165.3 16.2002H163.95C162.75 16.2002 161.85 15.9002 161.25 15.4502C160.65 15.0002 160.35 14.2502 160.35 13.3502V12.1502C160.35 10.3502 162.15 9.4502 165.6 9.4502C165.9 9.4502 167.1 9.4502 169.2 9.6002V11.1002C167.7 10.9502 166.5 10.8002 165.6 10.8002C164.4 10.8002 163.65 10.9502 163.2 11.1002C162.75 11.2502 162.6 11.7002 162.6 12.3002V13.3502C162.6 14.1002 163.35 14.5502 164.7 14.5502H166.05C168.45 14.5502 169.65 15.4502 169.65 17.2502V18.3002C169.65 19.5002 169.2 20.4002 168.45 20.8502C167.55 21.3002 166.35 21.6002 164.7 21.6002C163.2 21.6002 161.85 21.4502 160.5 21.3002Z" fill="white"/>
<path d="M65.7 36.6H63V35.25H65.7V33.45C65.7 32.1 66 31.2 66.6 30.75C67.2 30.3 68.1 30 69.6 30C70.5 30 71.25 30 72 30.15V31.5C71.4 31.35 70.8 31.35 70.35 31.35C69.6 31.35 69.15 31.35 68.85 31.5C68.55 31.65 68.25 31.8 68.1 32.1C67.95 32.4 67.95 32.85 67.95 33.3V35.25H72V36.6H67.95V46.8H65.85V36.6H65.7ZM73.5 30H75.6V32.4H73.5V30ZM73.5 35.25H75.6V46.8H73.5V35.25Z" fill="white"/>
<path d="M79.5 35.2502H81.6V36.6002C81.75 35.5502 83.1 34.9502 85.35 34.9502C86.85 34.9502 87.9 35.2502 88.5 35.7002C89.1 36.3002 89.4 37.0502 89.4 38.2502V46.8002H87.3V38.4002C87.3 38.1002 87.3 37.8002 87.3 37.6502C87.3 37.5002 87.15 37.2002 87 37.0502C86.7 36.6002 85.95 36.4502 84.9 36.4502C84 36.4502 83.4 36.4502 82.95 36.6002C82.5 36.7502 82.2 36.9002 82.05 37.2002C81.9 37.5002 81.75 37.8002 81.75 38.4002V46.8002H79.5V35.2502Z" fill="white"/>
<path d="M94.2004 46.7996C93.6004 46.6496 93.1504 46.1996 92.8504 45.7496C92.5504 45.1496 92.4004 44.3996 92.4004 43.4996C92.4004 42.5996 92.5504 41.9996 92.7004 41.3996C92.8504 40.7996 93.3004 40.4996 93.9004 40.3496C94.5004 40.1996 95.4004 40.0496 96.4504 40.0496H99.9004V38.2496C99.9004 37.7996 99.7504 37.4996 99.6004 37.1996C99.4504 36.8996 99.1504 36.7496 98.7004 36.7496C98.2504 36.5996 97.8004 36.5996 97.0504 36.5996C95.8504 36.5996 94.5004 36.7496 93.0004 36.8996V35.2496C94.6504 35.0996 96.0004 35.0996 97.3504 35.0996C98.7004 35.0996 99.7504 35.2496 100.35 35.3996C100.95 35.5496 101.4 35.9996 101.7 36.4496C102 36.8996 102 37.6496 102 38.6996V46.9496H99.9004V45.8996C99.7504 46.7996 98.5504 47.2496 96.4504 47.2496C95.7004 47.0996 94.8004 46.9496 94.2004 46.7996ZM97.2004 45.5996C97.9504 45.5996 98.7004 45.5996 99.1504 45.4496C99.9004 45.2996 100.2 44.9996 100.2 44.3996V41.2496H96.9004C96.1504 41.2496 95.7004 41.2496 95.4004 41.3996C95.1004 41.5496 94.9504 41.6996 94.8004 41.9996C94.6504 42.2996 94.6504 42.7496 94.6504 43.3496C94.6504 43.9496 94.6504 44.3996 94.8004 44.6996C94.9504 44.9996 95.1004 45.2996 95.4004 45.2996C95.7004 45.4496 96.1504 45.4496 96.7504 45.4496H97.2004V45.5996Z" fill="white"/>
<path d="M106.05 35.2502H108.15V36.6002C108.3 35.5502 109.65 34.9502 111.9 34.9502C113.4 34.9502 114.45 35.2502 115.05 35.7002C115.65 36.3002 115.95 37.0502 115.95 38.2502V46.8002H114V38.4002C114 38.1002 114 37.8002 114 37.6502C114 37.5002 113.85 37.2002 113.7 37.0502C113.4 36.6002 112.65 36.4502 111.6 36.4502C110.7 36.4502 110.1 36.4502 109.65 36.6002C109.2 36.7502 108.9 36.9002 108.75 37.2002C108.6 37.5002 108.45 37.8002 108.45 38.4002V46.8002H106.35V35.2502H106.05Z" fill="white"/>
<path d="M122.85 47.1002C122.55 47.1002 122.1 46.9502 121.65 46.8002C121.2 46.6502 120.75 46.5002 120.45 46.2002C120.15 45.9002 120 45.6002 119.7 45.0002C119.55 44.5502 119.4 43.9502 119.4 43.2002V39.0002C119.4 37.6502 119.7 36.7502 120.15 36.1502C120.45 35.8502 120.75 35.5502 121.05 35.4002C121.35 35.2502 121.65 35.1002 122.1 35.1002C122.55 35.1002 123 34.9502 123.3 34.9502C123.6 34.9502 124.2 34.9502 124.8 34.9502C125.85 34.9502 127.05 35.1002 128.1 35.2502V36.9002C126.75 36.6002 125.7 36.4502 124.5 36.4502C123.6 36.4502 123 36.4502 122.7 36.6002C122.4 36.7502 122.1 36.9002 121.95 37.2002C121.8 37.5002 121.65 37.9502 121.65 38.7002V43.5002C121.65 44.1002 121.8 44.5502 121.95 44.8502C122.1 45.1502 122.4 45.3002 122.85 45.4502C123.3 45.6002 123.9 45.6002 124.8 45.6002C126 45.6002 127.2 45.4502 128.25 45.1502V46.8002C127.2 46.9502 125.85 47.1002 124.5 47.1002C123.75 47.1002 123.15 47.1002 122.85 47.1002Z" fill="white"/>
<path d="M130.5 43.4996V38.9996C130.5 37.6496 130.95 36.5996 131.7 35.9996C132.45 35.3996 133.8 35.0996 135.6 35.0996C137.25 35.0996 138.6 35.3996 139.35 35.9996C140.1 36.5996 140.55 37.6496 140.55 38.9996V41.5496H132.75V43.3496C132.75 44.0996 133.05 44.6996 133.65 45.1496C134.25 45.4496 135 45.7496 136.2 45.7496C137.25 45.7496 138.6 45.5996 140.1 45.1496V46.7996C138.6 47.0996 137.25 47.2496 135.9 47.2496C132.3 47.0996 130.5 45.8996 130.5 43.4996ZM138.45 40.0496V38.2496C138.45 37.4996 138.3 37.0496 137.85 36.7496C137.4 36.4496 136.65 36.2996 135.75 36.2996C134.7 36.2996 134.1 36.4496 133.65 36.7496C133.2 37.0496 133.05 37.4996 133.05 38.2496V40.0496H138.45Z" fill="white"/>
<path d="M15.9 36.9004C16.05 37.0504 16.2 37.0504 16.35 37.2004H16.5L16.95 37.5004L17.55 36.4504L17.1 36.1504L16.95 36.0004C16.8 35.8504 16.65 35.8504 16.65 35.8504C16.2 35.5504 15.9 35.2504 15.75 34.9504C15.6 34.5004 15.45 34.0504 15.45 33.1504H14.25C14.25 35.2504 14.7 36.1504 15.9 36.9004Z" fill="#FF2020"/>
<path d="M36.8988 34.7996C37.4988 34.4996 37.6488 34.0496 37.6488 33.5996V12.1496C37.6488 11.6996 37.3488 11.3996 36.8988 11.0996L28.6488 6.74961C27.8988 6.29961 26.6988 6.29961 25.7988 6.74961L17.5488 11.0996C17.0988 11.3996 16.7988 11.6996 16.7988 12.1496V33.5996C16.7988 33.5996 16.7988 33.5996 16.7988 33.7496C16.7988 34.1996 17.0988 34.6496 17.5488 34.9496L25.7988 39.2996C26.5488 39.7496 27.7488 39.7496 28.6488 39.2996L36.8988 34.7996ZM36.4488 21.2996L29.0988 17.3996L36.4488 13.4996V21.2996V21.2996ZM36.2988 22.7996L28.0488 26.9996H27.8988V18.1496H28.0488L36.2988 22.7996ZM18.2988 12.1496L26.5488 7.79961C26.9988 7.64961 27.7488 7.64961 28.1988 7.79961L36.4488 12.1496L28.0488 16.4996C27.5988 16.6496 26.8488 16.6496 26.3988 16.4996L18.2988 12.1496ZM26.5488 18.2996V27.1496H26.3988L18.1488 22.7996L26.3988 18.4496C26.5488 18.4496 26.5488 18.4496 26.5488 18.2996ZM18.1488 13.6496L25.4988 17.5496L18.1488 21.4496V13.6496ZM27.2988 38.2496C26.6988 38.2496 26.2488 37.9496 25.9488 37.7996L18.2988 33.7496V24.2996L25.9488 28.3496C26.6988 28.7996 27.8988 28.7996 28.7988 28.3496L36.4488 24.2996V33.7496L28.6488 37.7996C28.1988 37.9496 27.7488 38.2496 27.2988 38.2496Z" fill="#FF2020"/>
<path d="M38.5494 9.00039C38.3994 8.85039 38.2494 8.85039 38.0994 8.70039H37.9494L37.4994 8.40039L36.8994 9.45039L37.3494 9.75039L37.4994 9.90039C37.6494 10.0504 37.7994 10.0504 37.7994 10.0504C38.2494 10.3504 38.5494 10.6504 38.6994 10.9504C38.8494 11.2504 38.9994 11.8504 38.9994 12.6004H40.3494C40.3494 10.6504 39.8994 9.75039 38.5494 9.00039Z" fill="#FF2020"/>
<path d="M45.2996 35.4C45.7496 25.95 46.6496 16.5 48.1496 7.2C48.1496 7.05 48.1496 6.9 48.1496 6.75C47.9996 1.2 30.4496 0 27.2996 0C20.6996 0 6.29961 1.8 6.29961 6.9C6.29961 7.05 6.29961 7.35 6.29961 7.5C7.79961 16.5 8.69961 25.95 9.14961 35.4C3.14961 37.5 -0.150391 40.65 -0.150391 44.25C-0.150391 45.9 0.449609 47.4 1.64961 48.75L2.69961 47.7C1.94961 46.65 1.49961 45.6 1.49961 44.25C1.49961 41.25 4.64961 38.55 10.1996 36.6L10.6496 36.45V35.85C10.3496 26.25 9.44961 16.65 7.79961 7.35C7.79961 7.35 7.79961 7.05 7.79961 6.9C7.79961 4.05 18.4496 1.5 27.2996 1.5C33.1496 1.5 46.6496 3.45 46.7996 6.9V7.05C45.2996 16.5 44.2496 26.25 43.9496 36V36.6L44.3996 36.75C50.0996 38.7 53.0996 41.4 53.0996 44.4C53.0996 50.7 40.0496 54.6 27.2996 54.6V56.1C40.7996 56.1 54.5996 52.05 54.5996 44.4C54.5996 40.8 51.2996 37.65 45.2996 35.4Z" fill="#FF2020"/>
<path d="M17.2496 41.25C13.3496 41.25 10.1996 43.8 9.14961 47.4C8.69961 46.95 7.94961 46.8 7.34961 46.8C5.69961 46.8 4.34961 48.15 4.34961 49.8C4.34961 51.15 5.24961 52.35 6.59961 52.65V60.15H8.09961V52.65C8.54961 52.5 8.84961 52.35 9.14961 52.05C10.1996 55.65 13.3496 58.2 17.2496 58.2C21.8996 58.2 25.6496 54.45 25.6496 49.8C25.6496 45.15 21.8996 41.25 17.2496 41.25ZM7.34961 51.15C6.59961 51.15 5.84961 50.55 5.84961 49.65C5.84961 48.75 6.44961 48.15 7.34961 48.15C8.24961 48.15 8.84961 48.75 8.84961 49.65C8.84961 50.55 8.09961 51.15 7.34961 51.15ZM17.2496 56.55C13.3496 56.55 10.3496 53.4 10.3496 49.65C10.3496 45.9 13.4996 42.75 17.2496 42.75C21.1496 42.75 24.1496 45.9 24.1496 49.65C24.1496 53.4 21.1496 56.55 17.2496 56.55Z" fill="#FF2020"/>
<path d="M17.25 44.5498V46.0498C19.2 46.0498 20.85 47.6998 20.85 49.6498H22.35C22.35 46.7998 20.1 44.5498 17.25 44.5498Z" fill="#FF2020"/>
<path d="M31.05 48.8996C31.2 49.0496 34.05 50.8496 37.65 50.8496C39.3 50.8496 41.1 50.3996 42.75 49.1996C45.9 46.9496 45.3 42.2996 45.3 42.1496L45.15 41.0996L30 48.1496L31.05 48.8996ZM43.95 43.3496C43.95 44.6996 43.65 46.7996 42 47.9996C38.85 50.2496 35.1 49.0496 33.3 48.2996L43.95 43.3496Z" fill="#FF2020"/>
</g>
<defs>
<clipPath id="clip0_474_25">
<rect width="169.5" height="60" fill="white"/>
</clipPath>
</defs>
</svg>
