<svg width="136" height="48" viewBox="0 0 136 48" fill="none" xmlns="http://www.w3.org/2000/svg">
<g clip-path="url(#clip0_474_516)">
<path d="M52.5596 4.55957H54.8396L61.5596 14.8796V4.55957H63.2396V17.0396H60.9596L54.2396 6.59957V17.0396H52.5596V4.55957Z" fill="white"/>
<path d="M68.4 17.1597C68.04 17.1597 67.56 16.9197 67.2 16.7997C66.72 16.5597 66.48 16.3197 66.24 15.8397C66 15.3597 66 14.8797 66 14.1597V10.9197C66 10.3197 66.12 9.83969 66.24 9.35969C66.36 8.87969 66.6 8.63969 66.84 8.39969C67.08 8.15969 67.32 8.03969 67.68 7.91969C68.04 7.79969 68.52 7.67969 68.88 7.67969C69.36 7.67969 69.84 7.67969 70.32 7.67969C71.04 7.67969 71.52 7.67969 71.88 7.67969C72.24 7.67969 72.6 7.79969 72.96 7.91969C73.2 7.91969 73.56 8.15969 73.8 8.39969C74.04 8.63969 74.16 8.99969 74.4 9.35969C74.52 9.83969 74.64 10.3197 74.64 10.9197V14.1597C74.64 15.2397 74.4 16.0797 73.92 16.5597C73.68 16.7997 73.44 16.9197 73.08 17.0397C72.72 17.1597 72.24 17.2797 71.88 17.2797C71.4 17.2797 70.92 17.2797 70.44 17.2797C69.48 17.2797 68.88 17.2797 68.4 17.1597ZM71.4 16.0797C71.64 16.0797 71.88 15.9597 72.12 15.8397C72.36 15.7197 72.48 15.5997 72.6 15.3597C72.72 15.1197 72.72 14.7597 72.72 14.3997V10.6797C72.72 10.0797 72.6 9.71969 72.48 9.47969C72.36 9.23969 72.12 8.99969 71.76 8.99969C71.4 8.87969 70.92 8.87969 70.2 8.87969C69.48 8.87969 69 8.87969 68.64 8.99969C68.28 9.11969 68.04 9.23969 67.92 9.47969C67.8 9.71969 67.68 10.1997 67.68 10.6797V14.3997C67.68 14.8797 67.68 15.1197 67.8 15.3597C67.92 15.5997 68.04 15.7197 68.28 15.8397C68.52 15.9597 68.76 16.0797 69 16.0797C69.24 16.0797 69.6 16.0797 70.2 16.0797C70.8 16.0797 71.16 16.0797 71.4 16.0797Z" fill="white"/>
<path d="M79.32 17.0399C78.84 16.9199 78.6 16.5599 78.36 16.1999C78.12 15.8399 78 15.1199 78 14.3999V8.87992H75.96V7.79992H78V4.91992H79.8V7.79992H83.16V8.87992H79.8V14.3999C79.8 14.8799 79.8 15.2399 79.92 15.4799C80.04 15.7199 80.28 15.8399 80.52 15.9599C80.76 16.0799 81.24 16.0799 81.72 16.0799C81.84 16.0799 82.32 16.0799 83.16 15.9599V17.0399C82.56 17.1599 81.84 17.1599 81.24 17.1599C80.28 17.2799 79.68 17.1599 79.32 17.0399Z" fill="white"/>
<path d="M86.9996 17.1597C86.6396 17.1597 86.1596 16.9197 85.7996 16.7997C85.3196 16.5597 85.0796 16.3197 84.8396 15.8397C84.5996 15.3597 84.5996 14.8797 84.5996 14.1597V10.9197C84.5996 10.3197 84.7196 9.83969 84.8396 9.35969C84.9596 8.87969 85.1996 8.63969 85.4396 8.39969C85.6796 8.15969 85.9196 8.03969 86.2796 7.91969C86.6396 7.79969 87.1196 7.67969 87.4796 7.67969C87.9596 7.67969 88.4396 7.67969 88.9196 7.67969C89.6396 7.67969 90.1196 7.67969 90.4796 7.67969C90.8396 7.67969 91.1996 7.79969 91.5596 7.91969C91.9196 7.91969 92.1596 8.15969 92.3996 8.39969C92.6396 8.63969 92.7596 8.99969 92.9996 9.35969C93.1196 9.83969 93.2396 10.3197 93.2396 10.9197V14.1597C93.2396 15.2397 92.9996 16.0797 92.5196 16.5597C92.2796 16.7997 92.0396 16.9197 91.6796 17.0397C91.3196 17.1597 90.8396 17.2797 90.4796 17.2797C89.9996 17.2797 89.5196 17.2797 89.0396 17.2797C88.0796 17.2797 87.4796 17.2797 86.9996 17.1597ZM89.9996 16.0797C90.2396 16.0797 90.4796 15.9597 90.7196 15.8397C90.9596 15.7197 91.0796 15.5997 91.1996 15.3597C91.3196 15.1197 91.3196 14.7597 91.3196 14.3997V10.6797C91.3196 10.0797 91.1996 9.71969 91.0796 9.47969C90.9596 9.23969 90.7196 8.99969 90.3596 8.99969C89.9996 8.87969 89.5196 8.87969 88.7996 8.87969C88.0796 8.87969 87.5996 8.87969 87.2396 8.99969C86.8796 9.11969 86.6396 9.23969 86.5196 9.47969C86.3996 9.59969 86.3996 10.0797 86.3996 10.6797V14.3997C86.3996 14.8797 86.3996 15.1197 86.5196 15.3597C86.6396 15.5997 86.7596 15.7197 86.9996 15.8397C87.2396 15.9597 87.4796 16.0797 87.7196 16.0797C87.9596 16.0797 88.3196 16.0797 88.9196 16.0797C89.3996 16.0797 89.7596 16.0797 89.9996 16.0797Z" fill="white"/>
<path d="M95.8799 7.79969H97.5599V9.35969C97.5599 9.11969 97.6799 8.75969 97.9199 8.51969C98.1599 8.27969 98.5199 8.03969 98.8799 7.91969C99.2399 7.79969 99.7199 7.67969 100.08 7.67969H100.92V9.11969H99.9599C99.1199 9.11969 98.5199 9.23969 98.1599 9.47969C97.7999 9.71969 97.5599 10.0797 97.5599 10.6797V17.2797H95.8799V7.79969Z" fill="white"/>
<path d="M102.6 4.44043H104.28V6.24043H102.6V4.44043ZM102.6 7.80043H104.28V17.0404H102.6V7.80043Z" fill="white"/>
<path d="M109.44 17.1597C109.08 17.1597 108.6 16.9197 108.24 16.7997C107.76 16.5597 107.52 16.3197 107.28 15.8397C107.04 15.3597 107.04 14.8797 107.04 14.1597V10.9197C107.04 10.3197 107.16 9.83969 107.28 9.35969C107.4 8.87969 107.64 8.63969 107.88 8.39969C108.12 8.15969 108.36 8.03969 108.72 7.91969C109.08 7.79969 109.56 7.67969 109.92 7.67969C110.4 7.67969 110.88 7.67969 111.36 7.67969C112.08 7.67969 112.56 7.67969 112.92 7.67969C113.28 7.67969 113.64 7.79969 114 7.91969C114.36 8.03969 114.72 8.15969 114.96 8.39969C115.2 8.63969 115.32 8.99969 115.56 9.35969C115.68 9.83969 115.8 10.3197 115.8 10.9197V14.1597C115.8 15.2397 115.56 16.0797 115.08 16.5597C114.84 16.7997 114.6 16.9197 114.24 17.0397C113.88 17.1597 113.4 17.2797 113.04 17.2797C112.56 17.2797 112.08 17.2797 111.6 17.2797C110.4 17.2797 109.8 17.2797 109.44 17.1597ZM112.44 16.0797C112.68 16.0797 112.92 15.9597 113.16 15.8397C113.4 15.7197 113.52 15.5997 113.64 15.3597C113.76 15.1197 113.76 14.7597 113.76 14.3997V10.6797C113.76 10.0797 113.64 9.71969 113.52 9.47969C113.4 9.23969 113.16 8.99969 112.8 8.99969C112.44 8.87969 111.96 8.87969 111.24 8.87969C110.52 8.87969 110.04 8.87969 109.68 8.99969C109.32 9.11969 109.08 9.23969 108.96 9.47969C108.84 9.71969 108.72 10.1997 108.72 10.6797V14.3997C108.72 14.8797 108.72 15.1197 108.84 15.3597C108.96 15.5997 109.08 15.7197 109.32 15.8397C109.56 15.9597 109.8 16.0797 110.04 16.0797C110.28 16.0797 110.64 16.0797 111.24 16.0797C111.84 16.0797 112.2 16.0797 112.44 16.0797Z" fill="white"/>
<path d="M118.56 16.6798C118.08 16.1998 117.84 15.5998 117.84 14.6398V7.7998H119.52V14.5198C119.52 14.7598 119.52 14.9998 119.64 15.1198C119.64 15.2398 119.76 15.3598 119.88 15.5998C120.12 15.9598 120.72 16.0798 121.56 16.0798C122.52 16.0798 123.12 15.9598 123.6 15.8398C123.96 15.7198 124.2 15.3598 124.2 14.8798V7.7998H125.88V17.0398H124.2V15.9598C124.08 16.7998 123 17.2798 121.2 17.2798C119.88 17.2798 119.04 17.0398 118.56 16.6798Z" fill="white"/>
<path d="M128.4 17.0396V15.7196C129.84 15.9596 130.92 16.0796 131.64 16.0796C132.48 16.0796 133.08 15.9596 133.44 15.8396C133.8 15.7196 133.92 15.3596 133.92 14.9996V14.0396C133.92 13.6796 133.8 13.3196 133.56 13.1996C133.32 13.0796 132.84 12.9596 132.24 12.9596H131.16C130.2 12.9596 129.48 12.7196 129 12.3596C128.52 11.9996 128.28 11.3996 128.28 10.6796V9.71957C128.28 8.27957 129.72 7.55957 132.48 7.55957C132.72 7.55957 133.68 7.55957 135.36 7.67957V8.87957C134.16 8.75957 133.2 8.63957 132.48 8.63957C131.52 8.63957 130.92 8.75957 130.56 8.87957C130.2 8.99957 130.08 9.35957 130.08 9.83957V10.6796C130.08 11.2796 130.68 11.6396 131.76 11.6396H132.84C134.76 11.6396 135.72 12.3596 135.72 13.7996V14.6396C135.72 15.5996 135.36 16.3196 134.76 16.6796C134.04 17.0396 133.08 17.2796 131.76 17.2796C130.56 17.2796 129.48 17.1596 128.4 17.0396Z" fill="white"/>
<path d="M52.5604 29.28H50.4004V28.2H52.5604V26.76C52.5604 25.68 52.8004 24.96 53.2804 24.6C53.7604 24.24 54.4804 24 55.6804 24C56.4004 24 57.0004 24 57.6004 24.12V25.2C57.1204 25.08 56.6404 25.08 56.2804 25.08C55.6804 25.08 55.3204 25.08 55.0804 25.2C54.8404 25.32 54.6004 25.44 54.4804 25.68C54.3604 25.92 54.3604 26.28 54.3604 26.64V28.2H57.6004V29.28H54.3604V37.44H52.6804V29.28H52.5604ZM58.8004 24H60.4804V25.92H58.8004V24ZM58.8004 28.2H60.4804V37.44H58.8004V28.2Z" fill="white"/>
<path d="M63.5996 28.2H65.2796V29.28C65.3996 28.44 66.4796 27.96 68.2796 27.96C69.4796 27.96 70.3196 28.2 70.7996 28.56C71.2796 29.04 71.5196 29.64 71.5196 30.6V37.44H69.8396V30.72C69.8396 30.48 69.8396 30.24 69.8396 30.12C69.8396 30 69.7196 29.76 69.5996 29.64C69.3596 29.28 68.7596 29.16 67.9196 29.16C67.1996 29.16 66.7196 29.16 66.3596 29.28C65.9996 29.4 65.7596 29.52 65.6396 29.76C65.5196 30 65.3996 30.24 65.3996 30.72V37.44H63.5996V28.2Z" fill="white"/>
<path d="M75.3599 37.4401C74.8799 37.3201 74.5199 36.9601 74.2799 36.6001C74.0399 36.1201 73.9199 35.5201 73.9199 34.8001C73.9199 34.0801 74.0399 33.6001 74.1599 33.1201C74.2799 32.6401 74.6399 32.4001 75.1199 32.2801C75.5999 32.1601 76.3199 32.0401 77.1599 32.0401H79.9199V30.6001C79.9199 30.2401 79.7999 30.0001 79.6799 29.7601C79.5599 29.5201 79.3199 29.4001 78.9599 29.4001C78.5999 29.2801 78.2399 29.2801 77.6399 29.2801C76.6799 29.2801 75.5999 29.4001 74.3999 29.5201V28.2001C75.7199 28.0801 76.7999 28.0801 77.8799 28.0801C78.9599 28.0801 79.7999 28.2001 80.2799 28.3201C80.7599 28.4401 81.1199 28.8001 81.3599 29.1601C81.5999 29.5201 81.5999 30.1201 81.5999 30.9601V37.5601H79.9199V36.7201C79.7999 37.4401 78.8399 37.8001 77.1599 37.8001C76.5599 37.6801 75.8399 37.5601 75.3599 37.4401ZM77.7599 36.4801C78.3599 36.4801 78.9599 36.4801 79.3199 36.3601C79.9199 36.2401 80.1599 36.0001 80.1599 35.5201V33.0001H77.5199C76.9199 33.0001 76.5599 33.0001 76.3199 33.1201C76.0799 33.2401 75.9599 33.3601 75.8399 33.6001C75.7199 33.8401 75.7199 34.2001 75.7199 34.6801C75.7199 35.1601 75.7199 35.5201 75.8399 35.7601C75.9599 36.0001 76.0799 36.2401 76.3199 36.2401C76.5599 36.3601 76.9199 36.3601 77.3999 36.3601H77.7599V36.4801Z" fill="white"/>
<path d="M84.8398 28.2H86.5198V29.28C86.6398 28.44 87.7198 27.96 89.5198 27.96C90.7198 27.96 91.5598 28.2 92.0398 28.56C92.5198 29.04 92.7599 29.64 92.7599 30.6V37.44H91.1998V30.72C91.1998 30.48 91.1998 30.24 91.1998 30.12C91.1998 30 91.0799 29.76 90.9599 29.64C90.7199 29.28 90.1198 29.16 89.2798 29.16C88.5598 29.16 88.0798 29.16 87.7198 29.28C87.3598 29.4 87.1198 29.52 86.9998 29.76C86.8798 30 86.7599 30.24 86.7599 30.72V37.44H85.0798V28.2H84.8398Z" fill="white"/>
<path d="M98.2795 37.68C98.0395 37.68 97.6795 37.56 97.3195 37.44C96.9595 37.32 96.5995 37.2 96.3595 36.96C96.1195 36.72 95.9995 36.48 95.7595 36C95.6395 35.64 95.5195 35.16 95.5195 34.56V31.2C95.5195 30.12 95.7595 29.4 96.1195 28.92C96.3595 28.68 96.5995 28.44 96.8395 28.32C97.0795 28.2 97.3195 28.08 97.6795 28.08C98.0395 28.08 98.3995 27.96 98.6395 27.96C98.8795 27.96 99.3595 27.96 99.8395 27.96C100.68 27.96 101.64 28.08 102.48 28.2V29.52C101.4 29.28 100.56 29.16 99.5995 29.16C98.8795 29.16 98.3995 29.16 98.1595 29.28C97.9195 29.4 97.6795 29.52 97.5595 29.76C97.4395 30 97.3195 30.36 97.3195 30.96V34.8C97.3195 35.28 97.4395 35.64 97.5595 35.88C97.6795 36.12 97.9195 36.24 98.2795 36.36C98.6395 36.48 99.1195 36.48 99.8395 36.48C100.8 36.48 101.76 36.36 102.6 36.12V37.44C101.76 37.56 100.68 37.68 99.5995 37.68C98.9995 37.68 98.5195 37.68 98.2795 37.68Z" fill="white"/>
<path d="M104.4 34.8001V31.2001C104.4 30.1201 104.76 29.2801 105.36 28.8001C105.96 28.3201 107.04 28.0801 108.48 28.0801C109.8 28.0801 110.88 28.3201 111.48 28.8001C112.08 29.2801 112.44 30.1201 112.44 31.2001V33.2401H106.2V34.6801C106.2 35.2801 106.44 35.7601 106.92 36.1201C107.4 36.3601 108 36.6001 108.96 36.6001C109.8 36.6001 110.88 36.4801 112.08 36.1201V37.4401C110.88 37.6801 109.8 37.8001 108.72 37.8001C105.84 37.6801 104.4 36.7201 104.4 34.8001ZM110.76 32.0401V30.6001C110.76 30.0001 110.64 29.6401 110.28 29.4001C109.92 29.1601 109.32 29.0401 108.6 29.0401C107.76 29.0401 107.28 29.1601 106.92 29.4001C106.56 29.6401 106.44 30.0001 106.44 30.6001V32.0401H110.76Z" fill="white"/>
<path d="M12.7194 29.5195C12.8394 29.6395 12.9594 29.6395 13.0794 29.7595H13.1994L13.5594 29.9995L14.0394 29.1595L13.6794 28.9195L13.5594 28.7995C13.4394 28.6795 13.3194 28.6795 13.3194 28.6795C12.9594 28.4395 12.7194 28.1995 12.5994 27.9595C12.4794 27.5995 12.3594 27.2395 12.3594 26.5195H11.3994C11.3994 28.1995 11.7594 28.9195 12.7194 29.5195Z" fill="#FF2020"/>
<path d="M29.5195 27.8399C29.9995 27.5999 30.1195 27.2399 30.1195 26.8799V9.71988C30.1195 9.35988 29.8795 9.11988 29.5195 8.87988L22.9195 5.39988C22.3195 5.03988 21.3595 5.03988 20.6395 5.39988L14.0395 8.87988C13.6795 9.11988 13.4395 9.35988 13.4395 9.71988V26.8799C13.4395 26.8799 13.4395 26.8799 13.4395 26.9999C13.4395 27.3599 13.6795 27.7199 14.0395 27.9599L20.6395 31.4399C21.2395 31.7999 22.1995 31.7999 22.9195 31.4399L29.5195 27.8399ZM29.1595 17.0399L23.2795 13.9199L29.1595 10.7999V17.0399V17.0399ZM29.0395 18.2399L22.4395 21.5999H22.3195V14.5199H22.4395L29.0395 18.2399ZM14.6395 9.71988L21.2395 6.23988C21.5995 6.11988 22.1995 6.11988 22.5595 6.23988L29.1595 9.71988L22.4395 13.1999C22.0795 13.3199 21.4795 13.3199 21.1195 13.1999L14.6395 9.71988ZM21.2395 14.6399V21.7199H21.1195L14.5195 18.2399L21.1195 14.7599C21.2395 14.7599 21.2395 14.7599 21.2395 14.6399ZM14.5195 10.9199L20.3995 14.0399L14.5195 17.1599V10.9199ZM21.8395 30.5999C21.3595 30.5999 20.9995 30.3599 20.7595 30.2399L14.6395 26.9999V19.4399L20.7595 22.6799C21.3595 23.0399 22.3195 23.0399 23.0395 22.6799L29.1595 19.4399V26.9999L22.9195 30.2399C22.5595 30.3599 22.1995 30.5999 21.8395 30.5999Z" fill="#FF2020"/>
<path d="M30.8395 7.19973C30.7195 7.07973 30.5995 7.07973 30.4795 6.95973H30.3595L29.9995 6.71973L29.5195 7.55973L29.8795 7.79973L29.9995 7.91973C30.1195 8.03973 30.2395 8.03973 30.2395 8.03973C30.5995 8.27973 30.8395 8.51973 30.9595 8.75973C31.0795 8.99973 31.1995 9.47973 31.1995 10.0797H32.2795C32.2795 8.51973 31.9195 7.79973 30.8395 7.19973Z" fill="#FF2020"/>
<path d="M36.2399 28.32C36.5999 20.76 37.3199 13.2 38.5199 5.76C38.5199 5.64 38.5199 5.52 38.5199 5.4C38.3999 0.96 24.3599 0 21.8399 0C16.5599 0 5.03988 1.44 5.03988 5.52C5.03988 5.64 5.03988 5.88 5.03988 6C6.23988 13.2 6.95988 20.76 7.31988 28.32C2.51988 30 -0.120117 32.52 -0.120117 35.4C-0.120117 36.72 0.359883 37.92 1.31988 39L2.15988 38.16C1.55988 37.32 1.19988 36.48 1.19988 35.4C1.19988 33 3.71988 30.84 8.15988 29.28L8.51988 29.16V28.68C8.27988 21 7.55988 13.32 6.23988 5.88C6.23988 5.88 6.23988 5.64 6.23988 5.52C6.23988 3.24 14.7599 1.2 21.8399 1.2C26.5199 1.2 37.3199 2.76 37.4399 5.52V5.64C36.2399 13.2 35.3999 21 35.1599 28.8V29.28L35.5199 29.4C40.0799 30.96 42.4799 33.12 42.4799 35.52C42.4799 40.56 32.0399 43.68 21.8399 43.68V44.88C32.6399 44.88 43.6799 41.64 43.6799 35.52C43.6799 32.64 41.0399 30.12 36.2399 28.32Z" fill="#FF2020"/>
<path d="M13.7995 33C10.6795 33 8.15949 35.04 7.31949 37.92C6.95949 37.56 6.35949 37.44 5.87949 37.44C4.55949 37.44 3.47949 38.52 3.47949 39.84C3.47949 40.92 4.19949 41.88 5.27949 42.12V48.12H6.47949V42.12C6.83949 42 7.07949 41.88 7.31949 41.64C8.15949 44.52 10.6795 46.56 13.7995 46.56C17.5195 46.56 20.5195 43.56 20.5195 39.84C20.5195 36.12 17.5195 33 13.7995 33ZM5.87949 40.92C5.27949 40.92 4.67949 40.44 4.67949 39.72C4.67949 39 5.15949 38.52 5.87949 38.52C6.59949 38.52 7.07949 39 7.07949 39.72C7.07949 40.44 6.47949 40.92 5.87949 40.92ZM13.7995 45.24C10.6795 45.24 8.27949 42.72 8.27949 39.72C8.27949 36.72 10.7995 34.2 13.7995 34.2C16.9195 34.2 19.3195 36.72 19.3195 39.72C19.3195 42.72 16.9195 45.24 13.7995 45.24Z" fill="#FF2020"/>
<path d="M13.7998 35.6396V36.8396C15.3598 36.8396 16.6798 38.1596 16.6798 39.7196H17.8798C17.8798 37.4396 16.0798 35.6396 13.7998 35.6396Z" fill="#FF2020"/>
<path d="M24.84 39.1199C24.96 39.2399 27.24 40.6799 30.12 40.6799C31.44 40.6799 32.88 40.3199 34.2 39.3599C36.72 37.5599 36.24 33.8399 36.24 33.7199L36.12 32.8799L24 38.5199L24.84 39.1199ZM35.16 34.6799C35.16 35.7599 34.92 37.4399 33.6 38.3999C31.08 40.1999 28.08 39.2399 26.64 38.6399L35.16 34.6799Z" fill="#FF2020"/>
</g>
<defs>
<clipPath id="clip0_474_516">
<rect width="135.6" height="48" fill="white"/>
</clipPath>
</defs>
</svg>
